G04 #@! TF.GenerationSoftware,KiCad,Pcbnew,(6.0.7-1)-1*
G04 #@! TF.CreationDate,2022-09-03T11:07:13+09:00*
G04 #@! TF.ProjectId,MEZ6502,4d455a36-3530-4322-9e6b-696361645f70,A*
G04 #@! TF.SameCoordinates,PX5f5e100PY8f0d180*
G04 #@! TF.FileFunction,Copper,L1,Top*
G04 #@! TF.FilePolarity,Positive*
%FSLAX46Y46*%
G04 Gerber Fmt 4.6, Leading zero omitted, Abs format (unit mm)*
G04 Created by KiCad (PCBNEW (6.0.7-1)-1) date 2022-09-03 11:07:13*
%MOMM*%
%LPD*%
G01*
G04 APERTURE LIST*
G04 #@! TA.AperFunction,ComponentPad*
%ADD10C,1.600000*%
G04 #@! TD*
G04 #@! TA.AperFunction,ComponentPad*
%ADD11O,1.600000X1.600000*%
G04 #@! TD*
G04 #@! TA.AperFunction,ComponentPad*
%ADD12R,1.800000X1.800000*%
G04 #@! TD*
G04 #@! TA.AperFunction,ComponentPad*
%ADD13C,1.800000*%
G04 #@! TD*
G04 #@! TA.AperFunction,ComponentPad*
%ADD14R,1.600000X1.600000*%
G04 #@! TD*
G04 #@! TA.AperFunction,ComponentPad*
%ADD15R,1.700000X1.700000*%
G04 #@! TD*
G04 #@! TA.AperFunction,ComponentPad*
%ADD16O,1.700000X1.700000*%
G04 #@! TD*
G04 #@! TA.AperFunction,ViaPad*
%ADD17C,0.605000*%
G04 #@! TD*
G04 #@! TA.AperFunction,Conductor*
%ADD18C,1.200000*%
G04 #@! TD*
G04 #@! TA.AperFunction,Conductor*
%ADD19C,0.254000*%
G04 #@! TD*
G04 APERTURE END LIST*
D10*
X25400000Y2540000D03*
D11*
X15240000Y2540000D03*
D12*
X5710000Y60960000D03*
D13*
X8250000Y60960000D03*
D14*
X21590000Y7620000D03*
D11*
X21590000Y10160000D03*
X21590000Y12700000D03*
X21590000Y15240000D03*
X21590000Y17780000D03*
X21590000Y20320000D03*
X21590000Y22860000D03*
X21590000Y25400000D03*
X21590000Y27940000D03*
X21590000Y30480000D03*
X21590000Y33020000D03*
X21590000Y35560000D03*
X21590000Y38100000D03*
X21590000Y40640000D03*
X21590000Y43180000D03*
X21590000Y45720000D03*
X21590000Y48260000D03*
X21590000Y50800000D03*
X21590000Y53340000D03*
X21590000Y55880000D03*
X6350000Y55880000D03*
X6350000Y53340000D03*
X6350000Y50800000D03*
X6350000Y48260000D03*
X6350000Y45720000D03*
X6350000Y43180000D03*
X6350000Y40640000D03*
X6350000Y38100000D03*
X6350000Y35560000D03*
X6350000Y33020000D03*
X6350000Y30480000D03*
X6350000Y27940000D03*
X6350000Y25400000D03*
X6350000Y22860000D03*
X6350000Y20320000D03*
X6350000Y17780000D03*
X6350000Y15240000D03*
X6350000Y12700000D03*
X6350000Y10160000D03*
X6350000Y7620000D03*
D10*
X25400000Y60960000D03*
D11*
X15240000Y60960000D03*
D10*
X5715000Y2540000D03*
X3215000Y2540000D03*
D15*
X3810000Y55875000D03*
D16*
X3810000Y53335000D03*
X3810000Y50795000D03*
X3810000Y48255000D03*
X3810000Y45715000D03*
X3810000Y43175000D03*
X3810000Y40635000D03*
X3810000Y38095000D03*
X3810000Y35555000D03*
X3810000Y33015000D03*
X3810000Y30475000D03*
X3810000Y27935000D03*
X3810000Y25395000D03*
X3810000Y22855000D03*
X3810000Y20315000D03*
X3810000Y17775000D03*
X3810000Y15235000D03*
X3810000Y12695000D03*
X3810000Y10155000D03*
X3810000Y7615000D03*
D15*
X24130000Y55880000D03*
D16*
X24130000Y53340000D03*
X24130000Y50800000D03*
X24130000Y48260000D03*
X24130000Y45720000D03*
X24130000Y43180000D03*
X24130000Y40640000D03*
X24130000Y38100000D03*
X24130000Y35560000D03*
X24130000Y33020000D03*
X24130000Y30480000D03*
X24130000Y27940000D03*
X24130000Y25400000D03*
X24130000Y22860000D03*
X24130000Y20320000D03*
X24130000Y17780000D03*
X24130000Y15240000D03*
X24130000Y12700000D03*
X24130000Y10160000D03*
X24130000Y7620000D03*
D17*
X18415000Y9882700D03*
X1270000Y33020000D03*
X17780000Y22860000D03*
X26670000Y63500000D03*
X9525000Y7620000D03*
X17780000Y53340000D03*
X9525000Y53340000D03*
X1270000Y63500000D03*
X9525000Y33020000D03*
X17780000Y33020000D03*
D18*
X13970000Y24130000D02*
X15240000Y25400000D01*
X5715000Y2540000D02*
X10160000Y2540000D01*
X5715000Y4445000D02*
X5715000Y2540000D01*
D19*
X19685000Y27305000D02*
X21590000Y25400000D01*
D18*
X1270000Y5715000D02*
X1905000Y5080000D01*
X3810000Y30475000D02*
X1900000Y30475000D01*
X5080000Y5080000D02*
X5715000Y4445000D01*
X1900000Y30475000D02*
X1270000Y29845000D01*
X1905000Y5080000D02*
X5080000Y5080000D01*
D19*
X23495000Y60960000D02*
X19685000Y57150000D01*
D18*
X15240000Y25400000D02*
X21590000Y25400000D01*
D19*
X19685000Y57150000D02*
X19685000Y27305000D01*
D18*
X13970000Y6350000D02*
X13970000Y24130000D01*
D19*
X25400000Y60960000D02*
X23495000Y60960000D01*
D18*
X10160000Y2540000D02*
X13970000Y6350000D01*
X1270000Y29845000D02*
X1270000Y5715000D01*
D19*
X6238100Y42100300D02*
X6350000Y42100300D01*
X4092500Y26524700D02*
X4939700Y27371900D01*
X3810000Y26524700D02*
X4092500Y26524700D01*
X3810000Y25395000D02*
X3810000Y26524700D01*
X4939700Y27371900D02*
X4939700Y40801900D01*
X4939700Y40801900D02*
X6238100Y42100300D01*
X6350000Y43180000D02*
X6350000Y42100300D01*
X3810000Y22855000D02*
X3810000Y23984700D01*
X3810000Y23984700D02*
X4078700Y23984700D01*
X6350000Y25400000D02*
X5270300Y25400000D01*
X5270300Y25176300D02*
X5270300Y25400000D01*
X4078700Y23984700D02*
X5270300Y25176300D01*
X6238100Y13779700D02*
X6350000Y13779700D01*
X3810000Y17775000D02*
X3810000Y16645300D01*
X4092500Y16645300D02*
X4939700Y15798100D01*
X3810000Y16645300D02*
X4092500Y16645300D01*
X4939700Y15078100D02*
X6238100Y13779700D01*
X6350000Y12700000D02*
X6350000Y13779700D01*
X4939700Y15798100D02*
X4939700Y15078100D01*
X25400000Y5220300D02*
X25400000Y2540000D01*
X24130000Y6490300D02*
X25400000Y5220300D01*
X24130000Y7620000D02*
X24130000Y6490300D01*
X7445100Y58045200D02*
X7445100Y22382900D01*
X6350000Y20320000D02*
X6350000Y21399700D01*
X5710000Y60960000D02*
X5710000Y59780300D01*
X5710000Y59780300D02*
X7445100Y58045200D01*
X7445100Y22382900D02*
X6461900Y21399700D01*
X6461900Y21399700D02*
X6350000Y21399700D01*
X20700600Y9080300D02*
X21590000Y9080300D01*
X21590000Y10160000D02*
X21590000Y9080300D01*
X15240000Y3619700D02*
X20700600Y9080300D01*
X15240000Y2540000D02*
X15240000Y3619700D01*
G04 #@! TA.AperFunction,Conductor*
G36*
X27433621Y64471498D02*
G01*
X27480114Y64417842D01*
X27491500Y64365500D01*
X27491500Y634500D01*
X27471498Y566379D01*
X27417842Y519886D01*
X27365500Y508500D01*
X634500Y508500D01*
X566379Y528502D01*
X519886Y582158D01*
X508500Y634500D01*
X508500Y1453938D01*
X2493493Y1453938D01*
X2502789Y1441923D01*
X2553994Y1406069D01*
X2563489Y1400586D01*
X2760947Y1308510D01*
X2771239Y1304764D01*
X2981688Y1248375D01*
X2992481Y1246472D01*
X3209525Y1227483D01*
X3220475Y1227483D01*
X3437519Y1246472D01*
X3448312Y1248375D01*
X3658761Y1304764D01*
X3669053Y1308510D01*
X3866511Y1400586D01*
X3876006Y1406069D01*
X3928048Y1442509D01*
X3936424Y1452988D01*
X3929356Y1466434D01*
X3227812Y2167978D01*
X3213868Y2175592D01*
X3212035Y2175461D01*
X3205420Y2171210D01*
X2499923Y1465713D01*
X2493493Y1453938D01*
X508500Y1453938D01*
X508500Y2534525D01*
X1902483Y2534525D01*
X1921472Y2317481D01*
X1923375Y2306688D01*
X1979764Y2096239D01*
X1983510Y2085947D01*
X2075586Y1888489D01*
X2081069Y1878994D01*
X2117509Y1826952D01*
X2127988Y1818576D01*
X2141434Y1825644D01*
X2842978Y2527188D01*
X2850592Y2541132D01*
X2850461Y2542965D01*
X2846210Y2549580D01*
X2140713Y3255077D01*
X2128938Y3261507D01*
X2116923Y3252211D01*
X2081069Y3201006D01*
X2075586Y3191511D01*
X1983510Y2994053D01*
X1979764Y2983761D01*
X1923375Y2773312D01*
X1921472Y2762519D01*
X1902483Y2545475D01*
X1902483Y2534525D01*
X508500Y2534525D01*
X508500Y4604653D01*
X528502Y4672774D01*
X582158Y4719267D01*
X652432Y4729371D01*
X717012Y4699877D01*
X723595Y4693749D01*
X1047451Y4369894D01*
X1054435Y4361622D01*
X1054666Y4361821D01*
X1058583Y4357283D01*
X1062054Y4352389D01*
X1066386Y4348242D01*
X1129017Y4288286D01*
X1130981Y4286363D01*
X1158540Y4258804D01*
X1160850Y4256897D01*
X1164259Y4254082D01*
X1171163Y4247940D01*
X1214850Y4206119D01*
X1219889Y4202865D01*
X1219892Y4202863D01*
X1242993Y4187947D01*
X1254877Y4179249D01*
X1276081Y4161738D01*
X1276090Y4161732D01*
X1280706Y4157920D01*
X1333817Y4128903D01*
X1341698Y4124214D01*
X1392548Y4091380D01*
X1398115Y4089137D01*
X1398116Y4089136D01*
X1423625Y4078856D01*
X1436931Y4072567D01*
X1466330Y4056504D01*
X1506642Y4043600D01*
X1523952Y4038059D01*
X1532625Y4034928D01*
X1588737Y4012314D01*
X1621615Y4005893D01*
X1635876Y4002231D01*
X1667782Y3992018D01*
X1717600Y3986034D01*
X1727846Y3984803D01*
X1736970Y3983366D01*
X1762547Y3978371D01*
X1796337Y3971772D01*
X1801899Y3971500D01*
X1831041Y3971500D01*
X1846069Y3970601D01*
X1871847Y3967504D01*
X1871851Y3967504D01*
X1877794Y3966790D01*
X1883770Y3967213D01*
X1883773Y3967213D01*
X1939868Y3971185D01*
X1948767Y3971500D01*
X2621520Y3971500D01*
X2689641Y3951498D01*
X2736134Y3897842D01*
X2746238Y3827568D01*
X2716744Y3762988D01*
X2674770Y3731305D01*
X2563489Y3679414D01*
X2553994Y3673931D01*
X2501952Y3637491D01*
X2493576Y3627012D01*
X2500644Y3613566D01*
X3202188Y2912022D01*
X3216132Y2904408D01*
X3217965Y2904539D01*
X3224580Y2908790D01*
X3930077Y3614287D01*
X3936507Y3626062D01*
X3927211Y3638077D01*
X3876006Y3673931D01*
X3866511Y3679414D01*
X3755230Y3731305D01*
X3701945Y3778223D01*
X3682484Y3846500D01*
X3703026Y3914460D01*
X3757049Y3960525D01*
X3808480Y3971500D01*
X4480500Y3971500D01*
X4548621Y3951498D01*
X4595114Y3897842D01*
X4606500Y3845500D01*
X4606500Y3277926D01*
X4583713Y3205656D01*
X4580634Y3201259D01*
X4580630Y3201251D01*
X4577477Y3196749D01*
X4575153Y3191766D01*
X4573829Y3189472D01*
X4522447Y3140479D01*
X4452733Y3127043D01*
X4386822Y3153429D01*
X4355591Y3189472D01*
X4348934Y3201002D01*
X4312491Y3253048D01*
X4302012Y3261424D01*
X4288566Y3254356D01*
X3587022Y2552812D01*
X3579408Y2538868D01*
X3579539Y2537035D01*
X3583790Y2530420D01*
X4289287Y1824923D01*
X4301062Y1818493D01*
X4313077Y1827789D01*
X4348934Y1878998D01*
X4355591Y1890528D01*
X4406973Y1939521D01*
X4476687Y1952958D01*
X4542598Y1926571D01*
X4573829Y1890528D01*
X4575153Y1888235D01*
X4577477Y1883251D01*
X4580631Y1878747D01*
X4696083Y1713865D01*
X4708802Y1695700D01*
X4870700Y1533802D01*
X4875208Y1530645D01*
X4875211Y1530643D01*
X4923737Y1496665D01*
X5058251Y1402477D01*
X5063233Y1400154D01*
X5063238Y1400151D01*
X5259765Y1308510D01*
X5265757Y1305716D01*
X5271065Y1304294D01*
X5271067Y1304293D01*
X5481598Y1247881D01*
X5481600Y1247881D01*
X5486913Y1246457D01*
X5715000Y1226502D01*
X5943087Y1246457D01*
X5948400Y1247881D01*
X5948402Y1247881D01*
X6158933Y1304293D01*
X6158935Y1304294D01*
X6164243Y1305716D01*
X6170235Y1308510D01*
X6366762Y1400151D01*
X6366767Y1400154D01*
X6371749Y1402477D01*
X6376258Y1405634D01*
X6376263Y1405637D01*
X6380656Y1408713D01*
X6452926Y1431500D01*
X10055743Y1431500D01*
X10066532Y1430589D01*
X10066554Y1430893D01*
X10072528Y1430454D01*
X10078446Y1429448D01*
X10171100Y1431470D01*
X10173848Y1431500D01*
X10212846Y1431500D01*
X10215825Y1431784D01*
X10215843Y1431785D01*
X10220222Y1432203D01*
X10229436Y1432743D01*
X10261088Y1433434D01*
X10283920Y1433932D01*
X10283921Y1433932D01*
X10289917Y1434063D01*
X10295775Y1435324D01*
X10295782Y1435325D01*
X10322674Y1441115D01*
X10337226Y1443367D01*
X10350607Y1444644D01*
X10370566Y1446548D01*
X10376327Y1448238D01*
X10428613Y1463576D01*
X10437561Y1465848D01*
X10490836Y1477318D01*
X10490847Y1477321D01*
X10496702Y1478582D01*
X10502218Y1480929D01*
X10502221Y1480930D01*
X10527532Y1491700D01*
X10541381Y1496659D01*
X10573534Y1506092D01*
X10627326Y1533797D01*
X10635660Y1537710D01*
X10691336Y1561400D01*
X10719130Y1580112D01*
X10731797Y1587603D01*
X10756246Y1600194D01*
X10756253Y1600198D01*
X10761580Y1602942D01*
X10787700Y1623459D01*
X10809143Y1640303D01*
X10816609Y1645737D01*
X10863033Y1676991D01*
X10863048Y1677002D01*
X10866799Y1679528D01*
X10870924Y1683269D01*
X10891529Y1703874D01*
X10902791Y1713865D01*
X10923203Y1729898D01*
X10923208Y1729902D01*
X10927920Y1733604D01*
X10931852Y1738135D01*
X10931857Y1738140D01*
X10968716Y1780616D01*
X10974786Y1787131D01*
X14680105Y5492449D01*
X14688379Y5499435D01*
X14688180Y5499665D01*
X14692725Y5503588D01*
X14697611Y5507054D01*
X14761714Y5574017D01*
X14763637Y5575981D01*
X14791196Y5603540D01*
X14795922Y5609263D01*
X14802061Y5616165D01*
X14839731Y5655515D01*
X14843881Y5659850D01*
X14862053Y5687993D01*
X14870751Y5699877D01*
X14888262Y5721081D01*
X14888268Y5721090D01*
X14892080Y5725706D01*
X14921097Y5778817D01*
X14925786Y5786698D01*
X14958620Y5837548D01*
X14971144Y5868625D01*
X14977433Y5881931D01*
X14993496Y5911330D01*
X15011947Y5968969D01*
X15015066Y5977607D01*
X15037686Y6033737D01*
X15038835Y6039622D01*
X15038837Y6039628D01*
X15044106Y6066612D01*
X15047769Y6080877D01*
X15056154Y6107071D01*
X15057982Y6112781D01*
X15058696Y6118726D01*
X15058699Y6118739D01*
X15065200Y6172855D01*
X15066636Y6181975D01*
X15077357Y6236875D01*
X15077358Y6236880D01*
X15078228Y6241337D01*
X15078500Y6246899D01*
X15078500Y6276041D01*
X15079399Y6291069D01*
X15082496Y6316847D01*
X15082496Y6316851D01*
X15083210Y6322794D01*
X15082073Y6338860D01*
X15078815Y6384868D01*
X15078500Y6393767D01*
X15078500Y23618655D01*
X15098502Y23686776D01*
X15115405Y23707750D01*
X15662250Y24254595D01*
X15724562Y24288621D01*
X15751345Y24291500D01*
X20852074Y24291500D01*
X20924344Y24268713D01*
X20928737Y24265637D01*
X20928742Y24265634D01*
X20933251Y24262477D01*
X20938233Y24260154D01*
X20938238Y24260151D01*
X20972457Y24244195D01*
X21025742Y24197278D01*
X21045203Y24129001D01*
X21024661Y24061041D01*
X20972457Y24015805D01*
X20938238Y23999849D01*
X20938233Y23999846D01*
X20933251Y23997523D01*
X20828389Y23924098D01*
X20750211Y23869357D01*
X20750208Y23869355D01*
X20745700Y23866198D01*
X20583802Y23704300D01*
X20580645Y23699792D01*
X20580643Y23699789D01*
X20560376Y23670845D01*
X20452477Y23516749D01*
X20450154Y23511767D01*
X20450151Y23511762D01*
X20358039Y23314225D01*
X20355716Y23309243D01*
X20354294Y23303935D01*
X20354293Y23303933D01*
X20302444Y23110430D01*
X20296457Y23088087D01*
X20276502Y22860000D01*
X20296457Y22631913D01*
X20297881Y22626600D01*
X20297881Y22626598D01*
X20345971Y22447127D01*
X20355716Y22410757D01*
X20358039Y22405776D01*
X20358039Y22405775D01*
X20450151Y22208238D01*
X20450154Y22208233D01*
X20452477Y22203251D01*
X20487157Y22153723D01*
X20571749Y22032914D01*
X20583802Y22015700D01*
X20745700Y21853802D01*
X20750208Y21850645D01*
X20750211Y21850643D01*
X20828389Y21795902D01*
X20933251Y21722477D01*
X20938233Y21720154D01*
X20938238Y21720151D01*
X20972457Y21704195D01*
X21025742Y21657278D01*
X21045203Y21589001D01*
X21024661Y21521041D01*
X20972457Y21475805D01*
X20938238Y21459849D01*
X20938233Y21459846D01*
X20933251Y21457523D01*
X20828389Y21384098D01*
X20750211Y21329357D01*
X20750208Y21329355D01*
X20745700Y21326198D01*
X20583802Y21164300D01*
X20580645Y21159792D01*
X20580643Y21159789D01*
X20525902Y21081611D01*
X20452477Y20976749D01*
X20450154Y20971767D01*
X20450151Y20971762D01*
X20358039Y20774225D01*
X20355716Y20769243D01*
X20354294Y20763935D01*
X20354293Y20763933D01*
X20302444Y20570430D01*
X20296457Y20548087D01*
X20276502Y20320000D01*
X20296457Y20091913D01*
X20297881Y20086600D01*
X20297881Y20086598D01*
X20345971Y19907127D01*
X20355716Y19870757D01*
X20358039Y19865776D01*
X20358039Y19865775D01*
X20450151Y19668238D01*
X20450154Y19668233D01*
X20452477Y19663251D01*
X20455634Y19658743D01*
X20562579Y19506010D01*
X20583802Y19475700D01*
X20745700Y19313802D01*
X20750208Y19310645D01*
X20750211Y19310643D01*
X20828389Y19255902D01*
X20933251Y19182477D01*
X20938233Y19180154D01*
X20938238Y19180151D01*
X20972457Y19164195D01*
X21025742Y19117278D01*
X21045203Y19049001D01*
X21024661Y18981041D01*
X20972457Y18935805D01*
X20938238Y18919849D01*
X20938233Y18919846D01*
X20933251Y18917523D01*
X20828389Y18844098D01*
X20750211Y18789357D01*
X20750208Y18789355D01*
X20745700Y18786198D01*
X20583802Y18624300D01*
X20580645Y18619792D01*
X20580643Y18619789D01*
X20525902Y18541611D01*
X20452477Y18436749D01*
X20450154Y18431767D01*
X20450151Y18431762D01*
X20358039Y18234225D01*
X20355716Y18229243D01*
X20354294Y18223935D01*
X20354293Y18223933D01*
X20302444Y18030430D01*
X20296457Y18008087D01*
X20276502Y17780000D01*
X20296457Y17551913D01*
X20297881Y17546600D01*
X20297881Y17546598D01*
X20345971Y17367127D01*
X20355716Y17330757D01*
X20358039Y17325776D01*
X20358039Y17325775D01*
X20450151Y17128238D01*
X20450154Y17128233D01*
X20452477Y17123251D01*
X20493904Y17064087D01*
X20562579Y16966010D01*
X20583802Y16935700D01*
X20745700Y16773802D01*
X20750208Y16770645D01*
X20750211Y16770643D01*
X20771348Y16755843D01*
X20933251Y16642477D01*
X20938233Y16640154D01*
X20938238Y16640151D01*
X20972457Y16624195D01*
X21025742Y16577278D01*
X21045203Y16509001D01*
X21024661Y16441041D01*
X20972457Y16395805D01*
X20938238Y16379849D01*
X20938233Y16379846D01*
X20933251Y16377523D01*
X20828389Y16304098D01*
X20750211Y16249357D01*
X20750208Y16249355D01*
X20745700Y16246198D01*
X20583802Y16084300D01*
X20580645Y16079792D01*
X20580643Y16079789D01*
X20525902Y16001611D01*
X20452477Y15896749D01*
X20450154Y15891767D01*
X20450151Y15891762D01*
X20358039Y15694225D01*
X20355716Y15689243D01*
X20354294Y15683935D01*
X20354293Y15683933D01*
X20302444Y15490430D01*
X20296457Y15468087D01*
X20276502Y15240000D01*
X20296457Y15011913D01*
X20297881Y15006600D01*
X20297881Y15006598D01*
X20311155Y14957061D01*
X20355716Y14790757D01*
X20358039Y14785776D01*
X20358039Y14785775D01*
X20450151Y14588238D01*
X20450154Y14588233D01*
X20452477Y14583251D01*
X20455634Y14578743D01*
X20562579Y14426010D01*
X20583802Y14395700D01*
X20745700Y14233802D01*
X20750208Y14230645D01*
X20750211Y14230643D01*
X20828389Y14175902D01*
X20933251Y14102477D01*
X20938233Y14100154D01*
X20938238Y14100151D01*
X20972457Y14084195D01*
X21025742Y14037278D01*
X21045203Y13969001D01*
X21024661Y13901041D01*
X20972457Y13855805D01*
X20938238Y13839849D01*
X20938233Y13839846D01*
X20933251Y13837523D01*
X20828389Y13764098D01*
X20750211Y13709357D01*
X20750208Y13709355D01*
X20745700Y13706198D01*
X20583802Y13544300D01*
X20580645Y13539792D01*
X20580643Y13539789D01*
X20525902Y13461611D01*
X20452477Y13356749D01*
X20450154Y13351767D01*
X20450151Y13351762D01*
X20358039Y13154225D01*
X20355716Y13149243D01*
X20354294Y13143935D01*
X20354293Y13143933D01*
X20302444Y12950430D01*
X20296457Y12928087D01*
X20276502Y12700000D01*
X20296457Y12471913D01*
X20297881Y12466600D01*
X20297881Y12466598D01*
X20345971Y12287127D01*
X20355716Y12250757D01*
X20358039Y12245776D01*
X20358039Y12245775D01*
X20450151Y12048238D01*
X20450154Y12048233D01*
X20452477Y12043251D01*
X20455634Y12038743D01*
X20562579Y11886010D01*
X20583802Y11855700D01*
X20745700Y11693802D01*
X20750208Y11690645D01*
X20750211Y11690643D01*
X20828389Y11635902D01*
X20933251Y11562477D01*
X20938233Y11560154D01*
X20938238Y11560151D01*
X20972457Y11544195D01*
X21025742Y11497278D01*
X21045203Y11429001D01*
X21024661Y11361041D01*
X20972457Y11315805D01*
X20938238Y11299849D01*
X20938233Y11299846D01*
X20933251Y11297523D01*
X20828389Y11224098D01*
X20750211Y11169357D01*
X20750208Y11169355D01*
X20745700Y11166198D01*
X20583802Y11004300D01*
X20580645Y10999792D01*
X20580643Y10999789D01*
X20525902Y10921611D01*
X20452477Y10816749D01*
X20450154Y10811767D01*
X20450151Y10811762D01*
X20358039Y10614225D01*
X20355716Y10609243D01*
X20354294Y10603935D01*
X20354293Y10603933D01*
X20302444Y10410430D01*
X20296457Y10388087D01*
X20276502Y10160000D01*
X20296457Y9931913D01*
X20353698Y9718288D01*
X20352008Y9647314D01*
X20310449Y9587882D01*
X20308002Y9586435D01*
X20293614Y9572047D01*
X20278580Y9559206D01*
X20262113Y9547242D01*
X20257060Y9541134D01*
X20233828Y9513051D01*
X20225838Y9504271D01*
X14846517Y4124950D01*
X14838191Y4117374D01*
X14831697Y4113253D01*
X14826274Y4107478D01*
X14784915Y4063435D01*
X14782160Y4060593D01*
X14762361Y4040794D01*
X14759937Y4037669D01*
X14759929Y4037660D01*
X14759863Y4037574D01*
X14752155Y4028549D01*
X14721783Y3996206D01*
X14717965Y3989262D01*
X14717964Y3989260D01*
X14711978Y3978371D01*
X14701127Y3961853D01*
X14688650Y3945767D01*
X14671024Y3905034D01*
X14665807Y3894386D01*
X14644431Y3855503D01*
X14642460Y3847828D01*
X14642458Y3847822D01*
X14639369Y3835789D01*
X14632966Y3817087D01*
X14624883Y3798408D01*
X14623644Y3790583D01*
X14617940Y3754573D01*
X14615532Y3742950D01*
X14613718Y3735885D01*
X14577404Y3674879D01*
X14563948Y3664007D01*
X14400211Y3549357D01*
X14400208Y3549355D01*
X14395700Y3546198D01*
X14233802Y3384300D01*
X14102477Y3196749D01*
X14100154Y3191767D01*
X14100151Y3191762D01*
X14008039Y2994225D01*
X14005716Y2989243D01*
X14004294Y2983935D01*
X14004293Y2983933D01*
X13983019Y2904539D01*
X13946457Y2768087D01*
X13926502Y2540000D01*
X13946457Y2311913D01*
X13947881Y2306600D01*
X13947881Y2306598D01*
X13985025Y2167978D01*
X14005716Y2090757D01*
X14008039Y2085776D01*
X14008039Y2085775D01*
X14100151Y1888238D01*
X14100154Y1888233D01*
X14102477Y1883251D01*
X14105634Y1878743D01*
X14221083Y1713865D01*
X14233802Y1695700D01*
X14395700Y1533802D01*
X14400208Y1530645D01*
X14400211Y1530643D01*
X14448737Y1496665D01*
X14583251Y1402477D01*
X14588233Y1400154D01*
X14588238Y1400151D01*
X14784765Y1308510D01*
X14790757Y1305716D01*
X14796065Y1304294D01*
X14796067Y1304293D01*
X15006598Y1247881D01*
X15006600Y1247881D01*
X15011913Y1246457D01*
X15240000Y1226502D01*
X15468087Y1246457D01*
X15473400Y1247881D01*
X15473402Y1247881D01*
X15683933Y1304293D01*
X15683935Y1304294D01*
X15689243Y1305716D01*
X15695235Y1308510D01*
X15891762Y1400151D01*
X15891767Y1400154D01*
X15896749Y1402477D01*
X16031263Y1496665D01*
X16079789Y1530643D01*
X16079792Y1530645D01*
X16084300Y1533802D01*
X16246198Y1695700D01*
X16258918Y1713865D01*
X16374366Y1878743D01*
X16377523Y1883251D01*
X16379846Y1888233D01*
X16379849Y1888238D01*
X16471961Y2085775D01*
X16471961Y2085776D01*
X16474284Y2090757D01*
X16494976Y2167978D01*
X16532119Y2306598D01*
X16532119Y2306600D01*
X16533543Y2311913D01*
X16553498Y2540000D01*
X16533543Y2768087D01*
X16496981Y2904539D01*
X16475707Y2983933D01*
X16475706Y2983935D01*
X16474284Y2989243D01*
X16471961Y2994225D01*
X16379849Y3191762D01*
X16379846Y3191767D01*
X16377523Y3196749D01*
X16246198Y3384300D01*
X16163860Y3466638D01*
X16129834Y3528950D01*
X16134899Y3599765D01*
X16163860Y3644828D01*
X20066405Y7547372D01*
X20128717Y7581398D01*
X20199533Y7576333D01*
X20256368Y7533786D01*
X20281179Y7467266D01*
X20281500Y7458277D01*
X20281500Y6771866D01*
X20288255Y6709684D01*
X20339385Y6573295D01*
X20426739Y6456739D01*
X20543295Y6369385D01*
X20679684Y6318255D01*
X20741866Y6311500D01*
X22438134Y6311500D01*
X22500316Y6318255D01*
X22636705Y6369385D01*
X22753261Y6456739D01*
X22840615Y6573295D01*
X22866656Y6642760D01*
X22886618Y6696007D01*
X22929260Y6752771D01*
X22995821Y6777471D01*
X23065170Y6762263D01*
X23099837Y6734275D01*
X23172865Y6649969D01*
X23172869Y6649965D01*
X23176250Y6646062D01*
X23348126Y6503368D01*
X23444805Y6446874D01*
X23493529Y6395236D01*
X23502231Y6373242D01*
X23503012Y6370554D01*
X23507023Y6351188D01*
X23509573Y6331001D01*
X23512489Y6323637D01*
X23512490Y6323632D01*
X23525907Y6289744D01*
X23529752Y6278515D01*
X23542131Y6235907D01*
X23546169Y6229080D01*
X23546170Y6229077D01*
X23552488Y6218394D01*
X23561188Y6200636D01*
X23565761Y6189085D01*
X23565765Y6189079D01*
X23568681Y6181712D01*
X23573339Y6175301D01*
X23573340Y6175299D01*
X23594764Y6145812D01*
X23601281Y6135890D01*
X23619826Y6104532D01*
X23619829Y6104528D01*
X23623866Y6097702D01*
X23638250Y6083318D01*
X23651091Y6068284D01*
X23663058Y6051813D01*
X23669166Y6046760D01*
X23697255Y6023523D01*
X23706035Y6015533D01*
X24727595Y4993973D01*
X24761621Y4931661D01*
X24764500Y4904878D01*
X24764500Y3757993D01*
X24744498Y3689872D01*
X24710772Y3654781D01*
X24686080Y3637491D01*
X24560211Y3549357D01*
X24560208Y3549355D01*
X24555700Y3546198D01*
X24393802Y3384300D01*
X24262477Y3196749D01*
X24260154Y3191767D01*
X24260151Y3191762D01*
X24168039Y2994225D01*
X24165716Y2989243D01*
X24164294Y2983935D01*
X24164293Y2983933D01*
X24143019Y2904539D01*
X24106457Y2768087D01*
X24086502Y2540000D01*
X24106457Y2311913D01*
X24107881Y2306600D01*
X24107881Y2306598D01*
X24145025Y2167978D01*
X24165716Y2090757D01*
X24168039Y2085776D01*
X24168039Y2085775D01*
X24260151Y1888238D01*
X24260154Y1888233D01*
X24262477Y1883251D01*
X24265634Y1878743D01*
X24381083Y1713865D01*
X24393802Y1695700D01*
X24555700Y1533802D01*
X24560208Y1530645D01*
X24560211Y1530643D01*
X24608737Y1496665D01*
X24743251Y1402477D01*
X24748233Y1400154D01*
X24748238Y1400151D01*
X24944765Y1308510D01*
X24950757Y1305716D01*
X24956065Y1304294D01*
X24956067Y1304293D01*
X25166598Y1247881D01*
X25166600Y1247881D01*
X25171913Y1246457D01*
X25400000Y1226502D01*
X25628087Y1246457D01*
X25633400Y1247881D01*
X25633402Y1247881D01*
X25843933Y1304293D01*
X25843935Y1304294D01*
X25849243Y1305716D01*
X25855235Y1308510D01*
X26051762Y1400151D01*
X26051767Y1400154D01*
X26056749Y1402477D01*
X26191263Y1496665D01*
X26239789Y1530643D01*
X26239792Y1530645D01*
X26244300Y1533802D01*
X26406198Y1695700D01*
X26418918Y1713865D01*
X26534366Y1878743D01*
X26537523Y1883251D01*
X26539846Y1888233D01*
X26539849Y1888238D01*
X26631961Y2085775D01*
X26631961Y2085776D01*
X26634284Y2090757D01*
X26654976Y2167978D01*
X26692119Y2306598D01*
X26692119Y2306600D01*
X26693543Y2311913D01*
X26713498Y2540000D01*
X26693543Y2768087D01*
X26656981Y2904539D01*
X26635707Y2983933D01*
X26635706Y2983935D01*
X26634284Y2989243D01*
X26631961Y2994225D01*
X26539849Y3191762D01*
X26539846Y3191767D01*
X26537523Y3196749D01*
X26406198Y3384300D01*
X26244300Y3546198D01*
X26239792Y3549355D01*
X26239789Y3549357D01*
X26113920Y3637491D01*
X26089229Y3654780D01*
X26044901Y3710237D01*
X26035500Y3757993D01*
X26035500Y5141280D01*
X26036030Y5152514D01*
X26037708Y5160019D01*
X26035562Y5228312D01*
X26035500Y5232269D01*
X26035500Y5260283D01*
X26034992Y5264304D01*
X26034058Y5276156D01*
X26032914Y5312582D01*
X26032914Y5312583D01*
X26032665Y5320505D01*
X26026987Y5340049D01*
X26022977Y5359412D01*
X26021420Y5371740D01*
X26021420Y5371742D01*
X26020427Y5379599D01*
X26017511Y5386963D01*
X26017510Y5386968D01*
X26004093Y5420856D01*
X26000248Y5432085D01*
X25990080Y5467081D01*
X25987869Y5474693D01*
X25977510Y5492209D01*
X25968813Y5509959D01*
X25961319Y5528888D01*
X25935240Y5564783D01*
X25928722Y5574705D01*
X25910170Y5606076D01*
X25910166Y5606081D01*
X25906134Y5612899D01*
X25891747Y5627286D01*
X25878906Y5642320D01*
X25871602Y5652373D01*
X25866942Y5658787D01*
X25832750Y5687073D01*
X25823971Y5695062D01*
X25064224Y6454809D01*
X25030198Y6517121D01*
X25035263Y6587936D01*
X25064379Y6633155D01*
X25164435Y6732863D01*
X25168096Y6736511D01*
X25199498Y6780211D01*
X25295435Y6913723D01*
X25298453Y6917923D01*
X25318628Y6958743D01*
X25395136Y7113547D01*
X25395137Y7113549D01*
X25397430Y7118189D01*
X25462370Y7331931D01*
X25491529Y7553410D01*
X25493156Y7620000D01*
X25474852Y7842639D01*
X25420431Y8059298D01*
X25331354Y8264160D01*
X25289704Y8328541D01*
X25212822Y8447383D01*
X25212820Y8447386D01*
X25210014Y8451723D01*
X25059670Y8616949D01*
X25055619Y8620148D01*
X25055615Y8620152D01*
X24888414Y8752200D01*
X24888410Y8752202D01*
X24884359Y8755402D01*
X24843053Y8778204D01*
X24793084Y8828636D01*
X24778312Y8898079D01*
X24803428Y8964484D01*
X24830780Y8991091D01*
X24897060Y9038368D01*
X25009860Y9118827D01*
X25038623Y9147489D01*
X25164435Y9272863D01*
X25168096Y9276511D01*
X25199498Y9320211D01*
X25295435Y9453723D01*
X25298453Y9457923D01*
X25318628Y9498743D01*
X25395136Y9653547D01*
X25395137Y9653549D01*
X25397430Y9658189D01*
X25462370Y9871931D01*
X25491529Y10093410D01*
X25493156Y10160000D01*
X25474852Y10382639D01*
X25420431Y10599298D01*
X25331354Y10804160D01*
X25289704Y10868541D01*
X25212822Y10987383D01*
X25212820Y10987386D01*
X25210014Y10991723D01*
X25059670Y11156949D01*
X25055619Y11160148D01*
X25055615Y11160152D01*
X24888414Y11292200D01*
X24888410Y11292202D01*
X24884359Y11295402D01*
X24843053Y11318204D01*
X24793084Y11368636D01*
X24778312Y11438079D01*
X24803428Y11504484D01*
X24830780Y11531091D01*
X24897060Y11578368D01*
X25009860Y11658827D01*
X25041788Y11690643D01*
X25164435Y11812863D01*
X25168096Y11816511D01*
X25199498Y11860211D01*
X25295435Y11993723D01*
X25298453Y11997923D01*
X25318628Y12038743D01*
X25395136Y12193547D01*
X25395137Y12193549D01*
X25397430Y12198189D01*
X25462370Y12411931D01*
X25491529Y12633410D01*
X25493156Y12700000D01*
X25474852Y12922639D01*
X25420431Y13139298D01*
X25331354Y13344160D01*
X25289704Y13408541D01*
X25212822Y13527383D01*
X25212820Y13527386D01*
X25210014Y13531723D01*
X25059670Y13696949D01*
X25055619Y13700148D01*
X25055615Y13700152D01*
X24888414Y13832200D01*
X24888410Y13832202D01*
X24884359Y13835402D01*
X24843053Y13858204D01*
X24793084Y13908636D01*
X24778312Y13978079D01*
X24803428Y14044484D01*
X24830780Y14071091D01*
X24897060Y14118368D01*
X25009860Y14198827D01*
X25033488Y14222372D01*
X25164435Y14352863D01*
X25168096Y14356511D01*
X25199498Y14400211D01*
X25295435Y14533723D01*
X25298453Y14537923D01*
X25318628Y14578743D01*
X25395136Y14733547D01*
X25395137Y14733549D01*
X25397430Y14738189D01*
X25462370Y14951931D01*
X25491529Y15173410D01*
X25493156Y15240000D01*
X25474852Y15462639D01*
X25420431Y15679298D01*
X25331354Y15884160D01*
X25210014Y16071723D01*
X25059670Y16236949D01*
X25055619Y16240148D01*
X25055615Y16240152D01*
X24888414Y16372200D01*
X24888410Y16372202D01*
X24884359Y16375402D01*
X24843053Y16398204D01*
X24793084Y16448636D01*
X24778312Y16518079D01*
X24803428Y16584484D01*
X24830780Y16611091D01*
X24897060Y16658368D01*
X25009860Y16738827D01*
X25041788Y16770643D01*
X25111451Y16840064D01*
X25168096Y16896511D01*
X25199498Y16940211D01*
X25295435Y17073723D01*
X25298453Y17077923D01*
X25318628Y17118743D01*
X25395136Y17273547D01*
X25395137Y17273549D01*
X25397430Y17278189D01*
X25462370Y17491931D01*
X25491529Y17713410D01*
X25493156Y17780000D01*
X25474852Y18002639D01*
X25420431Y18219298D01*
X25331354Y18424160D01*
X25289704Y18488541D01*
X25212822Y18607383D01*
X25212820Y18607386D01*
X25210014Y18611723D01*
X25059670Y18776949D01*
X25055619Y18780148D01*
X25055615Y18780152D01*
X24888414Y18912200D01*
X24888410Y18912202D01*
X24884359Y18915402D01*
X24843053Y18938204D01*
X24793084Y18988636D01*
X24778312Y19058079D01*
X24803428Y19124484D01*
X24830780Y19151091D01*
X24897060Y19198368D01*
X25009860Y19278827D01*
X25041788Y19310643D01*
X25164435Y19432863D01*
X25168096Y19436511D01*
X25199498Y19480211D01*
X25295435Y19613723D01*
X25298453Y19617923D01*
X25318628Y19658743D01*
X25395136Y19813547D01*
X25395137Y19813549D01*
X25397430Y19818189D01*
X25462370Y20031931D01*
X25491529Y20253410D01*
X25493156Y20320000D01*
X25474852Y20542639D01*
X25420431Y20759298D01*
X25331354Y20964160D01*
X25289704Y21028541D01*
X25212822Y21147383D01*
X25212820Y21147386D01*
X25210014Y21151723D01*
X25059670Y21316949D01*
X25055619Y21320148D01*
X25055615Y21320152D01*
X24888414Y21452200D01*
X24888410Y21452202D01*
X24884359Y21455402D01*
X24843053Y21478204D01*
X24793084Y21528636D01*
X24778312Y21598079D01*
X24803428Y21664484D01*
X24830780Y21691091D01*
X24897060Y21738368D01*
X25009860Y21818827D01*
X25041788Y21850643D01*
X25150524Y21959000D01*
X25168096Y21976511D01*
X25185417Y22000615D01*
X25295435Y22153723D01*
X25298453Y22157923D01*
X25307592Y22176413D01*
X25395136Y22353547D01*
X25395137Y22353549D01*
X25397430Y22358189D01*
X25462370Y22571931D01*
X25491529Y22793410D01*
X25493156Y22860000D01*
X25474852Y23082639D01*
X25420431Y23299298D01*
X25331354Y23504160D01*
X25213249Y23686723D01*
X25212822Y23687383D01*
X25212820Y23687386D01*
X25210014Y23691723D01*
X25059670Y23856949D01*
X25055619Y23860148D01*
X25055615Y23860152D01*
X24888414Y23992200D01*
X24888410Y23992202D01*
X24884359Y23995402D01*
X24843053Y24018204D01*
X24793084Y24068636D01*
X24778312Y24138079D01*
X24803428Y24204484D01*
X24830780Y24231091D01*
X24897060Y24278368D01*
X25009860Y24358827D01*
X25018282Y24367219D01*
X25153897Y24502362D01*
X25168096Y24516511D01*
X25199498Y24560211D01*
X25295435Y24693723D01*
X25298453Y24697923D01*
X25319693Y24740898D01*
X25395136Y24893547D01*
X25395137Y24893549D01*
X25397430Y24898189D01*
X25462370Y25111931D01*
X25491529Y25333410D01*
X25493156Y25400000D01*
X25474852Y25622639D01*
X25420431Y25839298D01*
X25331354Y26044160D01*
X25261022Y26152877D01*
X25212822Y26227383D01*
X25212820Y26227386D01*
X25210014Y26231723D01*
X25059670Y26396949D01*
X25055619Y26400148D01*
X25055615Y26400152D01*
X24888414Y26532200D01*
X24888410Y26532202D01*
X24884359Y26535402D01*
X24842569Y26558471D01*
X24792598Y26608903D01*
X24777826Y26678346D01*
X24802942Y26744752D01*
X24830294Y26771359D01*
X25005328Y26896208D01*
X25013200Y26902861D01*
X25164052Y27053188D01*
X25170730Y27061035D01*
X25295003Y27233980D01*
X25300313Y27242817D01*
X25394670Y27433733D01*
X25398469Y27443328D01*
X25460377Y27647090D01*
X25462555Y27657163D01*
X25463986Y27668038D01*
X25461775Y27682222D01*
X25448617Y27686000D01*
X24002000Y27686000D01*
X23933879Y27706002D01*
X23887386Y27759658D01*
X23876000Y27812000D01*
X23876000Y28068000D01*
X23896002Y28136121D01*
X23949658Y28182614D01*
X24002000Y28194000D01*
X25448344Y28194000D01*
X25461875Y28197973D01*
X25463180Y28207053D01*
X25421214Y28374125D01*
X25417894Y28383876D01*
X25332972Y28579186D01*
X25328105Y28588261D01*
X25212426Y28767074D01*
X25206136Y28775243D01*
X25062806Y28932760D01*
X25055273Y28939785D01*
X24888139Y29071778D01*
X24879556Y29077480D01*
X24842602Y29097880D01*
X24792631Y29148313D01*
X24777859Y29217755D01*
X24802975Y29284161D01*
X24830327Y29310768D01*
X24853797Y29327509D01*
X25009860Y29438827D01*
X25041788Y29470643D01*
X25164435Y29592863D01*
X25168096Y29596511D01*
X25199498Y29640211D01*
X25295435Y29773723D01*
X25298453Y29777923D01*
X25319693Y29820898D01*
X25395136Y29973547D01*
X25395137Y29973549D01*
X25397430Y29978189D01*
X25462370Y30191931D01*
X25491529Y30413410D01*
X25493156Y30480000D01*
X25474852Y30702639D01*
X25420431Y30919298D01*
X25331354Y31124160D01*
X25266778Y31223979D01*
X25212822Y31307383D01*
X25212820Y31307386D01*
X25210014Y31311723D01*
X25059670Y31476949D01*
X25055619Y31480148D01*
X25055615Y31480152D01*
X24888414Y31612200D01*
X24888410Y31612202D01*
X24884359Y31615402D01*
X24843053Y31638204D01*
X24793084Y31688636D01*
X24778312Y31758079D01*
X24803428Y31824484D01*
X24830780Y31851091D01*
X24897060Y31898368D01*
X25009860Y31978827D01*
X25041788Y32010643D01*
X25164435Y32132863D01*
X25168096Y32136511D01*
X25199498Y32180211D01*
X25295435Y32313723D01*
X25298453Y32317923D01*
X25319693Y32360898D01*
X25395136Y32513547D01*
X25395137Y32513549D01*
X25397430Y32518189D01*
X25462370Y32731931D01*
X25491529Y32953410D01*
X25493156Y33020000D01*
X25474852Y33242639D01*
X25420431Y33459298D01*
X25331354Y33664160D01*
X25262050Y33771288D01*
X25212822Y33847383D01*
X25212820Y33847386D01*
X25210014Y33851723D01*
X25059670Y34016949D01*
X25055619Y34020148D01*
X25055615Y34020152D01*
X24888414Y34152200D01*
X24888410Y34152202D01*
X24884359Y34155402D01*
X24843053Y34178204D01*
X24793084Y34228636D01*
X24778312Y34298079D01*
X24803428Y34364484D01*
X24830780Y34391091D01*
X24897060Y34438368D01*
X25009860Y34518827D01*
X25041788Y34550643D01*
X25164435Y34672863D01*
X25168096Y34676511D01*
X25199498Y34720211D01*
X25295435Y34853723D01*
X25298453Y34857923D01*
X25319693Y34900898D01*
X25395136Y35053547D01*
X25395137Y35053549D01*
X25397430Y35058189D01*
X25462370Y35271931D01*
X25491529Y35493410D01*
X25493156Y35560000D01*
X25474852Y35782639D01*
X25420431Y35999298D01*
X25331354Y36204160D01*
X25262050Y36311288D01*
X25212822Y36387383D01*
X25212820Y36387386D01*
X25210014Y36391723D01*
X25059670Y36556949D01*
X25055619Y36560148D01*
X25055615Y36560152D01*
X24888414Y36692200D01*
X24888410Y36692202D01*
X24884359Y36695402D01*
X24843053Y36718204D01*
X24793084Y36768636D01*
X24778312Y36838079D01*
X24803428Y36904484D01*
X24830780Y36931091D01*
X24897060Y36978368D01*
X25009860Y37058827D01*
X25041788Y37090643D01*
X25164435Y37212863D01*
X25168096Y37216511D01*
X25199498Y37260211D01*
X25295435Y37393723D01*
X25298453Y37397923D01*
X25319693Y37440898D01*
X25395136Y37593547D01*
X25395137Y37593549D01*
X25397430Y37598189D01*
X25462370Y37811931D01*
X25491529Y38033410D01*
X25493156Y38100000D01*
X25474852Y38322639D01*
X25420431Y38539298D01*
X25331354Y38744160D01*
X25262050Y38851288D01*
X25212822Y38927383D01*
X25212820Y38927386D01*
X25210014Y38931723D01*
X25059670Y39096949D01*
X25055619Y39100148D01*
X25055615Y39100152D01*
X24888414Y39232200D01*
X24888410Y39232202D01*
X24884359Y39235402D01*
X24843053Y39258204D01*
X24793084Y39308636D01*
X24778312Y39378079D01*
X24803428Y39444484D01*
X24830780Y39471091D01*
X24897060Y39518368D01*
X25009860Y39598827D01*
X25041788Y39630643D01*
X25164435Y39752863D01*
X25168096Y39756511D01*
X25199498Y39800211D01*
X25295435Y39933723D01*
X25298453Y39937923D01*
X25319693Y39980898D01*
X25395136Y40133547D01*
X25395137Y40133549D01*
X25397430Y40138189D01*
X25462370Y40351931D01*
X25491529Y40573410D01*
X25493156Y40640000D01*
X25474852Y40862639D01*
X25420431Y41079298D01*
X25331354Y41284160D01*
X25262050Y41391288D01*
X25212822Y41467383D01*
X25212820Y41467386D01*
X25210014Y41471723D01*
X25059670Y41636949D01*
X25055619Y41640148D01*
X25055615Y41640152D01*
X24888414Y41772200D01*
X24888410Y41772202D01*
X24884359Y41775402D01*
X24843053Y41798204D01*
X24793084Y41848636D01*
X24778312Y41918079D01*
X24803428Y41984484D01*
X24830780Y42011091D01*
X24897060Y42058368D01*
X25009860Y42138827D01*
X25041788Y42170643D01*
X25164435Y42292863D01*
X25168096Y42296511D01*
X25199498Y42340211D01*
X25295435Y42473723D01*
X25298453Y42477923D01*
X25319693Y42520898D01*
X25395136Y42673547D01*
X25395137Y42673549D01*
X25397430Y42678189D01*
X25462370Y42891931D01*
X25491529Y43113410D01*
X25493156Y43180000D01*
X25474852Y43402639D01*
X25420431Y43619298D01*
X25331354Y43824160D01*
X25262050Y43931288D01*
X25212822Y44007383D01*
X25212820Y44007386D01*
X25210014Y44011723D01*
X25059670Y44176949D01*
X25055619Y44180148D01*
X25055615Y44180152D01*
X24888414Y44312200D01*
X24888410Y44312202D01*
X24884359Y44315402D01*
X24843053Y44338204D01*
X24793084Y44388636D01*
X24778312Y44458079D01*
X24803428Y44524484D01*
X24830780Y44551091D01*
X24897060Y44598368D01*
X25009860Y44678827D01*
X25041788Y44710643D01*
X25164435Y44832863D01*
X25168096Y44836511D01*
X25199498Y44880211D01*
X25295435Y45013723D01*
X25298453Y45017923D01*
X25319693Y45060898D01*
X25395136Y45213547D01*
X25395137Y45213549D01*
X25397430Y45218189D01*
X25462370Y45431931D01*
X25491529Y45653410D01*
X25493156Y45720000D01*
X25474852Y45942639D01*
X25420431Y46159298D01*
X25331354Y46364160D01*
X25262050Y46471288D01*
X25212822Y46547383D01*
X25212820Y46547386D01*
X25210014Y46551723D01*
X25059670Y46716949D01*
X25055619Y46720148D01*
X25055615Y46720152D01*
X24888414Y46852200D01*
X24888410Y46852202D01*
X24884359Y46855402D01*
X24843053Y46878204D01*
X24793084Y46928636D01*
X24778312Y46998079D01*
X24803428Y47064484D01*
X24830780Y47091091D01*
X24897060Y47138368D01*
X25009860Y47218827D01*
X25041788Y47250643D01*
X25164435Y47372863D01*
X25168096Y47376511D01*
X25199498Y47420211D01*
X25295435Y47553723D01*
X25298453Y47557923D01*
X25319693Y47600898D01*
X25395136Y47753547D01*
X25395137Y47753549D01*
X25397430Y47758189D01*
X25462370Y47971931D01*
X25491529Y48193410D01*
X25493156Y48260000D01*
X25474852Y48482639D01*
X25420431Y48699298D01*
X25331354Y48904160D01*
X25262050Y49011288D01*
X25212822Y49087383D01*
X25212820Y49087386D01*
X25210014Y49091723D01*
X25059670Y49256949D01*
X25055619Y49260148D01*
X25055615Y49260152D01*
X24888414Y49392200D01*
X24888410Y49392202D01*
X24884359Y49395402D01*
X24843053Y49418204D01*
X24793084Y49468636D01*
X24778312Y49538079D01*
X24803428Y49604484D01*
X24830780Y49631091D01*
X24897060Y49678368D01*
X25009860Y49758827D01*
X25041788Y49790643D01*
X25164435Y49912863D01*
X25168096Y49916511D01*
X25199498Y49960211D01*
X25295435Y50093723D01*
X25298453Y50097923D01*
X25319693Y50140898D01*
X25395136Y50293547D01*
X25395137Y50293549D01*
X25397430Y50298189D01*
X25462370Y50511931D01*
X25491529Y50733410D01*
X25493156Y50800000D01*
X25474852Y51022639D01*
X25420431Y51239298D01*
X25331354Y51444160D01*
X25262050Y51551288D01*
X25212822Y51627383D01*
X25212820Y51627386D01*
X25210014Y51631723D01*
X25059670Y51796949D01*
X25055619Y51800148D01*
X25055615Y51800152D01*
X24888414Y51932200D01*
X24888410Y51932202D01*
X24884359Y51935402D01*
X24843053Y51958204D01*
X24793084Y52008636D01*
X24778312Y52078079D01*
X24803428Y52144484D01*
X24830780Y52171091D01*
X24897060Y52218368D01*
X25009860Y52298827D01*
X25041788Y52330643D01*
X25164435Y52452863D01*
X25168096Y52456511D01*
X25199498Y52500211D01*
X25295435Y52633723D01*
X25298453Y52637923D01*
X25319693Y52680898D01*
X25395136Y52833547D01*
X25395137Y52833549D01*
X25397430Y52838189D01*
X25462370Y53051931D01*
X25491529Y53273410D01*
X25493156Y53340000D01*
X25474852Y53562639D01*
X25420431Y53779298D01*
X25331354Y53984160D01*
X25262050Y54091288D01*
X25212822Y54167383D01*
X25212820Y54167386D01*
X25210014Y54171723D01*
X25206532Y54175550D01*
X25062798Y54333512D01*
X25031746Y54397358D01*
X25040141Y54467857D01*
X25085317Y54522625D01*
X25111761Y54536294D01*
X25218297Y54576233D01*
X25226705Y54579385D01*
X25343261Y54666739D01*
X25430615Y54783295D01*
X25481745Y54919684D01*
X25488500Y54981866D01*
X25488500Y56778134D01*
X25481745Y56840316D01*
X25430615Y56976705D01*
X25343261Y57093261D01*
X25226705Y57180615D01*
X25090316Y57231745D01*
X25028134Y57238500D01*
X23231866Y57238500D01*
X23169684Y57231745D01*
X23033295Y57180615D01*
X22916739Y57093261D01*
X22829385Y56976705D01*
X22778255Y56840316D01*
X22777402Y56832460D01*
X22775575Y56824778D01*
X22774211Y56825102D01*
X22750210Y56767336D01*
X22691849Y56726907D01*
X22620894Y56724449D01*
X22563091Y56757407D01*
X22434300Y56886198D01*
X22429792Y56889355D01*
X22429789Y56889357D01*
X22351611Y56944098D01*
X22246749Y57017523D01*
X22241767Y57019846D01*
X22241762Y57019849D01*
X22044225Y57111961D01*
X22044224Y57111961D01*
X22039243Y57114284D01*
X22033935Y57115706D01*
X22033933Y57115707D01*
X21823402Y57172119D01*
X21823400Y57172119D01*
X21818087Y57173543D01*
X21590000Y57193498D01*
X21361913Y57173543D01*
X21356600Y57172119D01*
X21356598Y57172119D01*
X21146067Y57115707D01*
X21146065Y57115706D01*
X21140757Y57114284D01*
X21135776Y57111961D01*
X21135775Y57111961D01*
X20938238Y57019849D01*
X20938233Y57019846D01*
X20933251Y57017523D01*
X20828389Y56944098D01*
X20750211Y56889357D01*
X20750208Y56889355D01*
X20745700Y56886198D01*
X20583802Y56724300D01*
X20580645Y56719792D01*
X20580643Y56719789D01*
X20549713Y56675616D01*
X20494256Y56631288D01*
X20423636Y56623979D01*
X20360276Y56656010D01*
X20324291Y56717211D01*
X20320500Y56747887D01*
X20320500Y56834578D01*
X20340502Y56902699D01*
X20357405Y56923673D01*
X23721328Y60287595D01*
X23783640Y60321621D01*
X23810423Y60324500D01*
X24182007Y60324500D01*
X24250128Y60304498D01*
X24285219Y60270772D01*
X24393802Y60115700D01*
X24555700Y59953802D01*
X24560208Y59950645D01*
X24560211Y59950643D01*
X24572148Y59942285D01*
X24743251Y59822477D01*
X24748233Y59820154D01*
X24748238Y59820151D01*
X24907238Y59746009D01*
X24950757Y59725716D01*
X24956065Y59724294D01*
X24956067Y59724293D01*
X25166598Y59667881D01*
X25166600Y59667881D01*
X25171913Y59666457D01*
X25400000Y59646502D01*
X25628087Y59666457D01*
X25633400Y59667881D01*
X25633402Y59667881D01*
X25843933Y59724293D01*
X25843935Y59724294D01*
X25849243Y59725716D01*
X25892762Y59746009D01*
X26051762Y59820151D01*
X26051767Y59820154D01*
X26056749Y59822477D01*
X26227852Y59942285D01*
X26239789Y59950643D01*
X26239792Y59950645D01*
X26244300Y59953802D01*
X26406198Y60115700D01*
X26537523Y60303251D01*
X26539846Y60308233D01*
X26539849Y60308238D01*
X26631961Y60505775D01*
X26631961Y60505776D01*
X26634284Y60510757D01*
X26693543Y60731913D01*
X26713498Y60960000D01*
X26693543Y61188087D01*
X26634284Y61409243D01*
X26620452Y61438906D01*
X26539849Y61611762D01*
X26539846Y61611767D01*
X26537523Y61616749D01*
X26406198Y61804300D01*
X26244300Y61966198D01*
X26239792Y61969355D01*
X26239789Y61969357D01*
X26136889Y62041408D01*
X26056749Y62097523D01*
X26051767Y62099846D01*
X26051762Y62099849D01*
X25854225Y62191961D01*
X25854224Y62191961D01*
X25849243Y62194284D01*
X25843935Y62195706D01*
X25843933Y62195707D01*
X25633402Y62252119D01*
X25633400Y62252119D01*
X25628087Y62253543D01*
X25400000Y62273498D01*
X25171913Y62253543D01*
X25166600Y62252119D01*
X25166598Y62252119D01*
X24956067Y62195707D01*
X24956065Y62195706D01*
X24950757Y62194284D01*
X24945776Y62191961D01*
X24945775Y62191961D01*
X24748238Y62099849D01*
X24748233Y62099846D01*
X24743251Y62097523D01*
X24663111Y62041408D01*
X24560211Y61969357D01*
X24560208Y61969355D01*
X24555700Y61966198D01*
X24393802Y61804300D01*
X24390645Y61799792D01*
X24390643Y61799789D01*
X24285220Y61649229D01*
X24229763Y61604901D01*
X24182007Y61595500D01*
X23574032Y61595500D01*
X23562793Y61596030D01*
X23555281Y61597709D01*
X23547356Y61597460D01*
X23547355Y61597460D01*
X23486970Y61595562D01*
X23483012Y61595500D01*
X23455017Y61595500D01*
X23451083Y61595003D01*
X23451081Y61595003D01*
X23450994Y61594992D01*
X23439160Y61594060D01*
X23394795Y61592665D01*
X23387182Y61590453D01*
X23387181Y61590453D01*
X23375252Y61586987D01*
X23355888Y61582977D01*
X23343560Y61581420D01*
X23343558Y61581420D01*
X23335701Y61580427D01*
X23328337Y61577511D01*
X23328332Y61577510D01*
X23294444Y61564093D01*
X23283215Y61560248D01*
X23269241Y61556188D01*
X23240607Y61547869D01*
X23233781Y61543832D01*
X23223091Y61537510D01*
X23205341Y61528813D01*
X23186412Y61521319D01*
X23179998Y61516659D01*
X23150514Y61495238D01*
X23140594Y61488722D01*
X23109229Y61470173D01*
X23109226Y61470171D01*
X23102402Y61466135D01*
X23088014Y61451747D01*
X23072980Y61438906D01*
X23056513Y61426942D01*
X23051460Y61420834D01*
X23028228Y61392751D01*
X23020238Y61383971D01*
X19291517Y57655250D01*
X19283191Y57647674D01*
X19276697Y57643553D01*
X19271274Y57637778D01*
X19229915Y57593735D01*
X19227160Y57590893D01*
X19207361Y57571094D01*
X19204937Y57567969D01*
X19204929Y57567960D01*
X19204863Y57567874D01*
X19197155Y57558849D01*
X19166783Y57526506D01*
X19162965Y57519562D01*
X19162964Y57519560D01*
X19156978Y57508671D01*
X19146127Y57492153D01*
X19133650Y57476067D01*
X19116024Y57435334D01*
X19110807Y57424686D01*
X19089431Y57385803D01*
X19087460Y57378128D01*
X19087458Y57378122D01*
X19084369Y57366089D01*
X19077966Y57347387D01*
X19069883Y57328708D01*
X19068644Y57320883D01*
X19062940Y57284873D01*
X19060535Y57273260D01*
X19049500Y57230282D01*
X19049500Y57209935D01*
X19047949Y57190224D01*
X19044765Y57170121D01*
X19045511Y57162229D01*
X19048941Y57125944D01*
X19049500Y57114086D01*
X19049500Y27384020D01*
X19048970Y27372786D01*
X19047292Y27365281D01*
X19048127Y27338701D01*
X19049438Y27296988D01*
X19049500Y27293031D01*
X19049500Y27265017D01*
X19049996Y27261092D01*
X19049996Y27261091D01*
X19050008Y27260996D01*
X19050941Y27249151D01*
X19052335Y27204795D01*
X19054547Y27197183D01*
X19058013Y27185252D01*
X19062023Y27165888D01*
X19064573Y27145701D01*
X19067489Y27138337D01*
X19067490Y27138332D01*
X19080907Y27104444D01*
X19084752Y27093215D01*
X19089598Y27076535D01*
X19097131Y27050607D01*
X19101169Y27043780D01*
X19101170Y27043777D01*
X19107488Y27033094D01*
X19116188Y27015336D01*
X19120761Y27003785D01*
X19120765Y27003779D01*
X19123681Y26996412D01*
X19128339Y26990001D01*
X19128340Y26989999D01*
X19149764Y26960512D01*
X19156281Y26950590D01*
X19174826Y26919232D01*
X19174829Y26919228D01*
X19178866Y26912402D01*
X19193250Y26898018D01*
X19206091Y26882984D01*
X19218058Y26866513D01*
X19224166Y26861460D01*
X19252255Y26838223D01*
X19261035Y26830233D01*
X19367673Y26723595D01*
X19401699Y26661283D01*
X19396634Y26590468D01*
X19354087Y26533632D01*
X19287567Y26508821D01*
X19278578Y26508500D01*
X15344252Y26508500D01*
X15333469Y26509410D01*
X15333447Y26509106D01*
X15327471Y26509545D01*
X15321554Y26510551D01*
X15228926Y26508530D01*
X15226178Y26508500D01*
X15187154Y26508500D01*
X15179769Y26507795D01*
X15170561Y26507256D01*
X15142127Y26506636D01*
X15116079Y26506068D01*
X15116077Y26506068D01*
X15110082Y26505937D01*
X15104223Y26504676D01*
X15104218Y26504675D01*
X15077325Y26498885D01*
X15062774Y26496633D01*
X15049405Y26495357D01*
X15029434Y26493452D01*
X15023674Y26491762D01*
X15023673Y26491762D01*
X14971388Y26476424D01*
X14962440Y26474152D01*
X14909164Y26462682D01*
X14909153Y26462679D01*
X14903298Y26461418D01*
X14897782Y26459071D01*
X14897779Y26459070D01*
X14872468Y26448300D01*
X14858619Y26443341D01*
X14826466Y26433908D01*
X14772674Y26406203D01*
X14764340Y26402290D01*
X14708664Y26378600D01*
X14680870Y26359888D01*
X14668203Y26352397D01*
X14643754Y26339806D01*
X14643747Y26339802D01*
X14638420Y26337058D01*
X14612300Y26316541D01*
X14590857Y26299697D01*
X14583391Y26294263D01*
X14536974Y26263013D01*
X14536966Y26263007D01*
X14533201Y26260472D01*
X14529075Y26256731D01*
X14508467Y26236123D01*
X14497205Y26226132D01*
X14476797Y26210102D01*
X14476793Y26210098D01*
X14472080Y26206396D01*
X14468149Y26201866D01*
X14468148Y26201865D01*
X14431291Y26159391D01*
X14425221Y26152877D01*
X13259895Y24987551D01*
X13251621Y24980565D01*
X13251820Y24980335D01*
X13247275Y24976412D01*
X13242389Y24972946D01*
X13238247Y24968619D01*
X13178287Y24905984D01*
X13176364Y24904020D01*
X13148804Y24876460D01*
X13146894Y24874148D01*
X13146892Y24874145D01*
X13144079Y24870739D01*
X13137957Y24863855D01*
X13096119Y24820150D01*
X13092867Y24815114D01*
X13092864Y24815110D01*
X13077947Y24792008D01*
X13069252Y24780127D01*
X13047920Y24754295D01*
X13040601Y24740898D01*
X13018913Y24701203D01*
X13014202Y24693283D01*
X12981380Y24642452D01*
X12979136Y24636884D01*
X12979135Y24636882D01*
X12968858Y24611381D01*
X12962565Y24598068D01*
X12946504Y24568671D01*
X12944676Y24562959D01*
X12944673Y24562953D01*
X12928059Y24511049D01*
X12924928Y24502375D01*
X12902314Y24446263D01*
X12901164Y24440373D01*
X12895895Y24413392D01*
X12892232Y24399125D01*
X12889517Y24390643D01*
X12882019Y24367219D01*
X12881305Y24361272D01*
X12881303Y24361265D01*
X12874802Y24307154D01*
X12873366Y24298033D01*
X12861772Y24238663D01*
X12861500Y24233101D01*
X12861500Y24203960D01*
X12860601Y24188932D01*
X12857504Y24163155D01*
X12857504Y24163149D01*
X12856790Y24157207D01*
X12857213Y24151232D01*
X12857213Y24151229D01*
X12861185Y24095137D01*
X12861500Y24086238D01*
X12861500Y6861346D01*
X12841498Y6793225D01*
X12824595Y6772251D01*
X9737749Y3685405D01*
X9675437Y3651379D01*
X9648654Y3648500D01*
X6949500Y3648500D01*
X6881379Y3668502D01*
X6834886Y3722158D01*
X6823500Y3774500D01*
X6823500Y4340743D01*
X6824411Y4351532D01*
X6824107Y4351554D01*
X6824546Y4357528D01*
X6825552Y4363446D01*
X6823530Y4456100D01*
X6823500Y4458848D01*
X6823500Y4497846D01*
X6823216Y4500825D01*
X6823215Y4500843D01*
X6822797Y4505222D01*
X6822257Y4514440D01*
X6821068Y4568921D01*
X6821068Y4568922D01*
X6820937Y4574917D01*
X6813885Y4607673D01*
X6811635Y4622199D01*
X6808452Y4655566D01*
X6791425Y4713605D01*
X6789151Y4722556D01*
X6777679Y4775842D01*
X6776418Y4781701D01*
X6763298Y4812537D01*
X6758339Y4826388D01*
X6750598Y4852776D01*
X6750595Y4852783D01*
X6748908Y4858534D01*
X6721202Y4912328D01*
X6717286Y4920670D01*
X6695950Y4970814D01*
X6695948Y4970817D01*
X6693600Y4976336D01*
X6674888Y5004130D01*
X6667397Y5016797D01*
X6654806Y5041246D01*
X6654802Y5041253D01*
X6652058Y5046580D01*
X6631541Y5072700D01*
X6614697Y5094143D01*
X6609263Y5101609D01*
X6578008Y5148033D01*
X6578004Y5148039D01*
X6575472Y5151799D01*
X6571732Y5155924D01*
X6551123Y5176533D01*
X6541132Y5187795D01*
X6525102Y5208203D01*
X6525098Y5208207D01*
X6521396Y5212920D01*
X6474391Y5253709D01*
X6467877Y5259779D01*
X5937551Y5790105D01*
X5930565Y5798379D01*
X5930335Y5798180D01*
X5926412Y5802725D01*
X5922946Y5807611D01*
X5855984Y5871713D01*
X5854020Y5873636D01*
X5826460Y5901196D01*
X5824145Y5903108D01*
X5820739Y5905921D01*
X5813855Y5912043D01*
X5770150Y5953881D01*
X5765114Y5957133D01*
X5765110Y5957136D01*
X5742008Y5972053D01*
X5730126Y5980749D01*
X5708919Y5998262D01*
X5708916Y5998264D01*
X5704295Y6002080D01*
X5651203Y6031087D01*
X5643283Y6035798D01*
X5592452Y6068620D01*
X5586884Y6070864D01*
X5586882Y6070865D01*
X5561381Y6081142D01*
X5548068Y6087435D01*
X5539546Y6092091D01*
X5518671Y6103496D01*
X5512959Y6105324D01*
X5512953Y6105327D01*
X5461049Y6121941D01*
X5452375Y6125072D01*
X5396263Y6147686D01*
X5363392Y6154105D01*
X5349125Y6157768D01*
X5322927Y6166154D01*
X5322925Y6166154D01*
X5317219Y6167981D01*
X5311272Y6168695D01*
X5311265Y6168697D01*
X5257154Y6175198D01*
X5248033Y6176634D01*
X5221473Y6181821D01*
X5188663Y6188228D01*
X5183101Y6188500D01*
X5153960Y6188500D01*
X5138932Y6189399D01*
X5113155Y6192496D01*
X5113149Y6192496D01*
X5107207Y6193210D01*
X5101232Y6192787D01*
X5101229Y6192787D01*
X5045137Y6188815D01*
X5036238Y6188500D01*
X4529841Y6188500D01*
X4461720Y6208502D01*
X4415227Y6262158D01*
X4405123Y6332432D01*
X4434617Y6397012D01*
X4474405Y6427649D01*
X4507994Y6444104D01*
X4689860Y6573827D01*
X4704019Y6587936D01*
X4818768Y6702285D01*
X4848096Y6731511D01*
X4870194Y6762263D01*
X4975435Y6908723D01*
X4978453Y6912923D01*
X4995711Y6947842D01*
X5043822Y7000047D01*
X5112523Y7017955D01*
X5180000Y6995877D01*
X5211077Y6962270D01*
X5212477Y6963251D01*
X5331531Y6793225D01*
X5343802Y6775700D01*
X5505700Y6613802D01*
X5510208Y6610645D01*
X5510211Y6610643D01*
X5573812Y6566109D01*
X5693251Y6482477D01*
X5698233Y6480154D01*
X5698238Y6480151D01*
X5895775Y6388039D01*
X5900757Y6385716D01*
X5906065Y6384294D01*
X5906067Y6384293D01*
X6116598Y6327881D01*
X6116600Y6327881D01*
X6121913Y6326457D01*
X6350000Y6306502D01*
X6578087Y6326457D01*
X6583400Y6327881D01*
X6583402Y6327881D01*
X6793933Y6384293D01*
X6793935Y6384294D01*
X6799243Y6385716D01*
X6804225Y6388039D01*
X7001762Y6480151D01*
X7001767Y6480154D01*
X7006749Y6482477D01*
X7126188Y6566109D01*
X7189789Y6610643D01*
X7189792Y6610645D01*
X7194300Y6613802D01*
X7356198Y6775700D01*
X7377422Y6806010D01*
X7484366Y6958743D01*
X7487523Y6963251D01*
X7489846Y6968233D01*
X7489849Y6968238D01*
X7581961Y7165775D01*
X7581961Y7165776D01*
X7584284Y7170757D01*
X7594030Y7207127D01*
X7642119Y7386598D01*
X7642119Y7386600D01*
X7643543Y7391913D01*
X7663498Y7620000D01*
X7643543Y7848087D01*
X7594111Y8032569D01*
X7585707Y8063933D01*
X7585706Y8063935D01*
X7584284Y8069243D01*
X7581961Y8074225D01*
X7489849Y8271762D01*
X7489846Y8271767D01*
X7487523Y8276749D01*
X7414098Y8381611D01*
X7359357Y8459789D01*
X7359355Y8459792D01*
X7356198Y8464300D01*
X7194300Y8626198D01*
X7189792Y8629355D01*
X7189789Y8629357D01*
X7111611Y8684098D01*
X7006749Y8757523D01*
X7001767Y8759846D01*
X7001762Y8759849D01*
X6967543Y8775805D01*
X6914258Y8822722D01*
X6894797Y8890999D01*
X6915339Y8958959D01*
X6967543Y9004195D01*
X7001762Y9020151D01*
X7001767Y9020154D01*
X7006749Y9022477D01*
X7111611Y9095902D01*
X7189789Y9150643D01*
X7189792Y9150645D01*
X7194300Y9153802D01*
X7356198Y9315700D01*
X7377422Y9346010D01*
X7484366Y9498743D01*
X7487523Y9503251D01*
X7489846Y9508233D01*
X7489849Y9508238D01*
X7581961Y9705775D01*
X7581961Y9705776D01*
X7584284Y9710757D01*
X7594030Y9747127D01*
X7642119Y9926598D01*
X7642120Y9926601D01*
X7643543Y9931913D01*
X7663498Y10160000D01*
X7643543Y10388087D01*
X7637556Y10410430D01*
X7585707Y10603933D01*
X7585706Y10603935D01*
X7584284Y10609243D01*
X7581961Y10614225D01*
X7489849Y10811762D01*
X7489846Y10811767D01*
X7487523Y10816749D01*
X7414098Y10921611D01*
X7359357Y10999789D01*
X7359355Y10999792D01*
X7356198Y11004300D01*
X7194300Y11166198D01*
X7189792Y11169355D01*
X7189789Y11169357D01*
X7111611Y11224098D01*
X7006749Y11297523D01*
X7001767Y11299846D01*
X7001762Y11299849D01*
X6967543Y11315805D01*
X6914258Y11362722D01*
X6894797Y11430999D01*
X6915339Y11498959D01*
X6967543Y11544195D01*
X7001762Y11560151D01*
X7001767Y11560154D01*
X7006749Y11562477D01*
X7111611Y11635902D01*
X7189789Y11690643D01*
X7189792Y11690645D01*
X7194300Y11693802D01*
X7356198Y11855700D01*
X7377422Y11886010D01*
X7484366Y12038743D01*
X7487523Y12043251D01*
X7489846Y12048233D01*
X7489849Y12048238D01*
X7581961Y12245775D01*
X7581961Y12245776D01*
X7584284Y12250757D01*
X7594030Y12287127D01*
X7642119Y12466598D01*
X7642119Y12466600D01*
X7643543Y12471913D01*
X7663498Y12700000D01*
X7643543Y12928087D01*
X7637556Y12950430D01*
X7585707Y13143933D01*
X7585706Y13143935D01*
X7584284Y13149243D01*
X7581961Y13154225D01*
X7489849Y13351762D01*
X7489846Y13351767D01*
X7487523Y13356749D01*
X7414098Y13461611D01*
X7359357Y13539789D01*
X7359355Y13539792D01*
X7356198Y13544300D01*
X7194300Y13706198D01*
X7189792Y13709355D01*
X7189789Y13709357D01*
X7109562Y13765533D01*
X7029395Y13821666D01*
X6985068Y13877122D01*
X6979433Y13896103D01*
X6979205Y13899727D01*
X6976755Y13907267D01*
X6976754Y13907273D01*
X6976641Y13907620D01*
X6971469Y13930756D01*
X6971421Y13931135D01*
X6971420Y13931140D01*
X6970427Y13938999D01*
X6964267Y13954557D01*
X6957786Y14025257D01*
X6990558Y14088238D01*
X7009147Y14104156D01*
X7189789Y14230643D01*
X7189792Y14230645D01*
X7194300Y14233802D01*
X7356198Y14395700D01*
X7377422Y14426010D01*
X7484366Y14578743D01*
X7487523Y14583251D01*
X7489846Y14588233D01*
X7489849Y14588238D01*
X7581961Y14785775D01*
X7581961Y14785776D01*
X7584284Y14790757D01*
X7628846Y14957061D01*
X7642119Y15006598D01*
X7642119Y15006600D01*
X7643543Y15011913D01*
X7663498Y15240000D01*
X7643543Y15468087D01*
X7637556Y15490430D01*
X7585707Y15683933D01*
X7585706Y15683935D01*
X7584284Y15689243D01*
X7581961Y15694225D01*
X7489849Y15891762D01*
X7489846Y15891767D01*
X7487523Y15896749D01*
X7414098Y16001611D01*
X7359357Y16079789D01*
X7359355Y16079792D01*
X7356198Y16084300D01*
X7194300Y16246198D01*
X7189792Y16249355D01*
X7189789Y16249357D01*
X7111611Y16304098D01*
X7006749Y16377523D01*
X7001767Y16379846D01*
X7001762Y16379849D01*
X6967543Y16395805D01*
X6914258Y16442722D01*
X6894797Y16510999D01*
X6915339Y16578959D01*
X6967543Y16624195D01*
X7001762Y16640151D01*
X7001767Y16640154D01*
X7006749Y16642477D01*
X7168652Y16755843D01*
X7189789Y16770643D01*
X7189792Y16770645D01*
X7194300Y16773802D01*
X7356198Y16935700D01*
X7377422Y16966010D01*
X7446096Y17064087D01*
X7487523Y17123251D01*
X7489846Y17128233D01*
X7489849Y17128238D01*
X7581961Y17325775D01*
X7581961Y17325776D01*
X7584284Y17330757D01*
X7594030Y17367127D01*
X7642119Y17546598D01*
X7642119Y17546600D01*
X7643543Y17551913D01*
X7663498Y17780000D01*
X7643543Y18008087D01*
X7637556Y18030430D01*
X7585707Y18223933D01*
X7585706Y18223935D01*
X7584284Y18229243D01*
X7581961Y18234225D01*
X7489849Y18431762D01*
X7489846Y18431767D01*
X7487523Y18436749D01*
X7414098Y18541611D01*
X7359357Y18619789D01*
X7359355Y18619792D01*
X7356198Y18624300D01*
X7194300Y18786198D01*
X7189792Y18789355D01*
X7189789Y18789357D01*
X7111611Y18844098D01*
X7006749Y18917523D01*
X7001767Y18919846D01*
X7001762Y18919849D01*
X6967543Y18935805D01*
X6914258Y18982722D01*
X6894797Y19050999D01*
X6915339Y19118959D01*
X6967543Y19164195D01*
X7001762Y19180151D01*
X7001767Y19180154D01*
X7006749Y19182477D01*
X7111611Y19255902D01*
X7189789Y19310643D01*
X7189792Y19310645D01*
X7194300Y19313802D01*
X7356198Y19475700D01*
X7377422Y19506010D01*
X7484366Y19658743D01*
X7487523Y19663251D01*
X7489846Y19668233D01*
X7489849Y19668238D01*
X7581961Y19865775D01*
X7581961Y19865776D01*
X7584284Y19870757D01*
X7594030Y19907127D01*
X7642119Y20086598D01*
X7642119Y20086600D01*
X7643543Y20091913D01*
X7663498Y20320000D01*
X7643543Y20548087D01*
X7637556Y20570430D01*
X7585707Y20763933D01*
X7585706Y20763935D01*
X7584284Y20769243D01*
X7581961Y20774225D01*
X7489849Y20971762D01*
X7489846Y20971767D01*
X7487523Y20976749D01*
X7414098Y21081611D01*
X7359357Y21159789D01*
X7359355Y21159792D01*
X7356198Y21164300D01*
X7329811Y21190687D01*
X7295785Y21252999D01*
X7300850Y21323814D01*
X7329811Y21368877D01*
X7838588Y21877654D01*
X7846907Y21885225D01*
X7853403Y21889347D01*
X7900186Y21939166D01*
X7902940Y21942007D01*
X7922739Y21961806D01*
X7925163Y21964931D01*
X7925171Y21964940D01*
X7925237Y21965026D01*
X7932945Y21974051D01*
X7957890Y22000615D01*
X7963317Y22006394D01*
X7973123Y22024231D01*
X7983973Y22040747D01*
X7996450Y22056833D01*
X8014076Y22097566D01*
X8019293Y22108214D01*
X8036849Y22140149D01*
X8040669Y22147097D01*
X8042640Y22154772D01*
X8042642Y22154778D01*
X8045731Y22166811D01*
X8052134Y22185513D01*
X8060217Y22204192D01*
X8066741Y22245384D01*
X8067160Y22248027D01*
X8069567Y22259649D01*
X8071918Y22268805D01*
X8080600Y22302618D01*
X8080600Y22322965D01*
X8082151Y22342676D01*
X8084095Y22354950D01*
X8085335Y22362779D01*
X8081159Y22406956D01*
X8080600Y22418814D01*
X8080600Y57966168D01*
X8081130Y57977407D01*
X8082809Y57984919D01*
X8080662Y58053231D01*
X8080600Y58057188D01*
X8080600Y58085183D01*
X8080092Y58089206D01*
X8079159Y58101048D01*
X8078014Y58137480D01*
X8077765Y58145405D01*
X8072087Y58164949D01*
X8068077Y58184312D01*
X8066520Y58196640D01*
X8066520Y58196642D01*
X8065527Y58204499D01*
X8062611Y58211863D01*
X8062610Y58211868D01*
X8049193Y58245756D01*
X8045348Y58256985D01*
X8035181Y58291978D01*
X8032969Y58299593D01*
X8028930Y58306423D01*
X8022612Y58317106D01*
X8013912Y58334864D01*
X8009339Y58346415D01*
X8009335Y58346421D01*
X8006419Y58353788D01*
X7980334Y58389691D01*
X7973819Y58399610D01*
X7955274Y58430968D01*
X7955271Y58430972D01*
X7951234Y58437798D01*
X7936850Y58452182D01*
X7924009Y58467216D01*
X7916702Y58477273D01*
X7912042Y58483687D01*
X7877844Y58511978D01*
X7869065Y58519967D01*
X6915421Y59473612D01*
X6881396Y59535922D01*
X6886461Y59606737D01*
X6928952Y59663531D01*
X6966080Y59691357D01*
X6966081Y59691358D01*
X6973261Y59696739D01*
X7060615Y59813295D01*
X7085180Y59878822D01*
X7127822Y59935586D01*
X7194383Y59960286D01*
X7263732Y59945079D01*
X7283647Y59931536D01*
X7415942Y59821703D01*
X7439349Y59802270D01*
X7639322Y59685416D01*
X7855694Y59602791D01*
X7860760Y59601760D01*
X7860761Y59601760D01*
X7913846Y59590960D01*
X8082656Y59556615D01*
X8212089Y59551869D01*
X8308949Y59548317D01*
X8308953Y59548317D01*
X8314113Y59548128D01*
X8319233Y59548784D01*
X8319235Y59548784D01*
X8393166Y59558255D01*
X8543847Y59577558D01*
X8548795Y59579043D01*
X8548802Y59579044D01*
X8760747Y59642631D01*
X8765690Y59644114D01*
X8770565Y59646502D01*
X8969049Y59743738D01*
X8969052Y59743740D01*
X8973684Y59746009D01*
X9162243Y59880506D01*
X9326303Y60043995D01*
X9461458Y60232083D01*
X9564078Y60439720D01*
X9631408Y60661329D01*
X9661640Y60890959D01*
X9663327Y60960000D01*
X13926502Y60960000D01*
X13946457Y60731913D01*
X14005716Y60510757D01*
X14008039Y60505776D01*
X14008039Y60505775D01*
X14100151Y60308238D01*
X14100154Y60308233D01*
X14102477Y60303251D01*
X14233802Y60115700D01*
X14395700Y59953802D01*
X14400208Y59950645D01*
X14400211Y59950643D01*
X14412148Y59942285D01*
X14583251Y59822477D01*
X14588233Y59820154D01*
X14588238Y59820151D01*
X14747238Y59746009D01*
X14790757Y59725716D01*
X14796065Y59724294D01*
X14796067Y59724293D01*
X15006598Y59667881D01*
X15006600Y59667881D01*
X15011913Y59666457D01*
X15240000Y59646502D01*
X15468087Y59666457D01*
X15473400Y59667881D01*
X15473402Y59667881D01*
X15683933Y59724293D01*
X15683935Y59724294D01*
X15689243Y59725716D01*
X15732762Y59746009D01*
X15891762Y59820151D01*
X15891767Y59820154D01*
X15896749Y59822477D01*
X16067852Y59942285D01*
X16079789Y59950643D01*
X16079792Y59950645D01*
X16084300Y59953802D01*
X16246198Y60115700D01*
X16377523Y60303251D01*
X16379846Y60308233D01*
X16379849Y60308238D01*
X16471961Y60505775D01*
X16471961Y60505776D01*
X16474284Y60510757D01*
X16533543Y60731913D01*
X16553498Y60960000D01*
X16533543Y61188087D01*
X16474284Y61409243D01*
X16460452Y61438906D01*
X16379849Y61611762D01*
X16379846Y61611767D01*
X16377523Y61616749D01*
X16246198Y61804300D01*
X16084300Y61966198D01*
X16079792Y61969355D01*
X16079789Y61969357D01*
X15976889Y62041408D01*
X15896749Y62097523D01*
X15891767Y62099846D01*
X15891762Y62099849D01*
X15694225Y62191961D01*
X15694224Y62191961D01*
X15689243Y62194284D01*
X15683935Y62195706D01*
X15683933Y62195707D01*
X15473402Y62252119D01*
X15473400Y62252119D01*
X15468087Y62253543D01*
X15240000Y62273498D01*
X15011913Y62253543D01*
X15006600Y62252119D01*
X15006598Y62252119D01*
X14796067Y62195707D01*
X14796065Y62195706D01*
X14790757Y62194284D01*
X14785776Y62191961D01*
X14785775Y62191961D01*
X14588238Y62099849D01*
X14588233Y62099846D01*
X14583251Y62097523D01*
X14503111Y62041408D01*
X14400211Y61969357D01*
X14400208Y61969355D01*
X14395700Y61966198D01*
X14233802Y61804300D01*
X14102477Y61616749D01*
X14100154Y61611767D01*
X14100151Y61611762D01*
X14019548Y61438906D01*
X14005716Y61409243D01*
X13946457Y61188087D01*
X13926502Y60960000D01*
X9663327Y60960000D01*
X9657032Y61036566D01*
X9644773Y61185682D01*
X9644772Y61185688D01*
X9644349Y61190833D01*
X9590822Y61403933D01*
X9589184Y61410456D01*
X9589183Y61410460D01*
X9587925Y61415467D01*
X9585866Y61420203D01*
X9497630Y61623132D01*
X9497628Y61623135D01*
X9495570Y61627869D01*
X9369764Y61822335D01*
X9213887Y61993642D01*
X9209836Y61996841D01*
X9209832Y61996845D01*
X9036177Y62133989D01*
X9036172Y62133992D01*
X9032123Y62137190D01*
X9027607Y62139683D01*
X9027604Y62139685D01*
X8833879Y62246627D01*
X8833875Y62246629D01*
X8829355Y62249124D01*
X8824486Y62250848D01*
X8824482Y62250850D01*
X8615903Y62324712D01*
X8615899Y62324713D01*
X8611028Y62326438D01*
X8605935Y62327345D01*
X8605932Y62327346D01*
X8388095Y62366149D01*
X8388089Y62366150D01*
X8383006Y62367055D01*
X8310096Y62367946D01*
X8156581Y62369821D01*
X8156579Y62369821D01*
X8151411Y62369884D01*
X7922464Y62334850D01*
X7702314Y62262894D01*
X7697726Y62260506D01*
X7697722Y62260504D01*
X7501461Y62158337D01*
X7496872Y62155948D01*
X7492739Y62152845D01*
X7492736Y62152843D01*
X7344319Y62041408D01*
X7311655Y62016883D01*
X7294170Y61998586D01*
X7232646Y61963156D01*
X7161733Y61966613D01*
X7103947Y62007859D01*
X7085094Y62041408D01*
X7063768Y62098295D01*
X7063767Y62098297D01*
X7060615Y62106705D01*
X6973261Y62223261D01*
X6856705Y62310615D01*
X6720316Y62361745D01*
X6658134Y62368500D01*
X4761866Y62368500D01*
X4699684Y62361745D01*
X4563295Y62310615D01*
X4446739Y62223261D01*
X4359385Y62106705D01*
X4308255Y61970316D01*
X4301500Y61908134D01*
X4301500Y60011866D01*
X4308255Y59949684D01*
X4359385Y59813295D01*
X4446739Y59696739D01*
X4563295Y59609385D01*
X4699684Y59558255D01*
X4761866Y59551500D01*
X5031461Y59551500D01*
X5099582Y59531498D01*
X5138479Y59484128D01*
X5141942Y59486032D01*
X5145764Y59479079D01*
X5148681Y59471712D01*
X5153339Y59465301D01*
X5153340Y59465299D01*
X5174764Y59435812D01*
X5181281Y59425890D01*
X5199826Y59394532D01*
X5199829Y59394528D01*
X5203866Y59387702D01*
X5218250Y59373318D01*
X5231091Y59358284D01*
X5243058Y59341813D01*
X5249166Y59336760D01*
X5277255Y59313523D01*
X5286035Y59305533D01*
X6772695Y57818872D01*
X6806721Y57756560D01*
X6809600Y57729777D01*
X6809600Y57275198D01*
X6789598Y57207077D01*
X6735942Y57160584D01*
X6665668Y57150480D01*
X6650988Y57153492D01*
X6621499Y57161394D01*
X6607401Y57161058D01*
X6604000Y57153116D01*
X6604000Y55752000D01*
X6583998Y55683879D01*
X6530342Y55637386D01*
X6478000Y55626000D01*
X6222000Y55626000D01*
X6153879Y55646002D01*
X6107386Y55699658D01*
X6096000Y55752000D01*
X6096000Y57147967D01*
X6092027Y57161498D01*
X6083478Y57162727D01*
X5906239Y57115236D01*
X5895947Y57111490D01*
X5698489Y57019414D01*
X5688993Y57013931D01*
X5510533Y56888972D01*
X5502125Y56881916D01*
X5376489Y56756280D01*
X5314177Y56722254D01*
X5243362Y56727319D01*
X5186526Y56769866D01*
X5166644Y56820306D01*
X5164425Y56819778D01*
X5162598Y56827460D01*
X5161745Y56835316D01*
X5110615Y56971705D01*
X5023261Y57088261D01*
X4906705Y57175615D01*
X4770316Y57226745D01*
X4708134Y57233500D01*
X2911866Y57233500D01*
X2849684Y57226745D01*
X2713295Y57175615D01*
X2596739Y57088261D01*
X2509385Y56971705D01*
X2458255Y56835316D01*
X2451500Y56773134D01*
X2451500Y54976866D01*
X2458255Y54914684D01*
X2509385Y54778295D01*
X2596739Y54661739D01*
X2713295Y54574385D01*
X2721704Y54571233D01*
X2721705Y54571232D01*
X2830451Y54530465D01*
X2887216Y54487824D01*
X2911916Y54421262D01*
X2896709Y54351913D01*
X2877316Y54325432D01*
X2750629Y54192862D01*
X2747715Y54188590D01*
X2747714Y54188589D01*
X2736209Y54171723D01*
X2624743Y54008320D01*
X2530688Y53805695D01*
X2470989Y53590430D01*
X2447251Y53368305D01*
X2447548Y53363152D01*
X2447548Y53363149D01*
X2452914Y53270092D01*
X2460110Y53145285D01*
X2461247Y53140239D01*
X2461248Y53140233D01*
X2482265Y53046977D01*
X2509222Y52927361D01*
X2543419Y52843143D01*
X2585101Y52740493D01*
X2593266Y52720384D01*
X2595965Y52715980D01*
X2703662Y52540234D01*
X2709987Y52529912D01*
X2856250Y52361062D01*
X2931213Y52298827D01*
X3018123Y52226673D01*
X3028126Y52218368D01*
X3059301Y52200151D01*
X3101445Y52175524D01*
X3150169Y52123886D01*
X3163240Y52054103D01*
X3136509Y51988331D01*
X3096055Y51954973D01*
X3083607Y51948493D01*
X3079474Y51945390D01*
X3079471Y51945388D01*
X2911624Y51819365D01*
X2904965Y51814365D01*
X2750629Y51652862D01*
X2747715Y51648590D01*
X2747714Y51648589D01*
X2738815Y51635543D01*
X2624743Y51468320D01*
X2530688Y51265695D01*
X2470989Y51050430D01*
X2447251Y50828305D01*
X2447548Y50823152D01*
X2447548Y50823149D01*
X2452914Y50730092D01*
X2460110Y50605285D01*
X2461247Y50600239D01*
X2461248Y50600233D01*
X2482265Y50506977D01*
X2509222Y50387361D01*
X2543419Y50303143D01*
X2585101Y50200493D01*
X2593266Y50180384D01*
X2595965Y50175980D01*
X2703662Y50000234D01*
X2709987Y49989912D01*
X2856250Y49821062D01*
X2931213Y49758827D01*
X3018123Y49686673D01*
X3028126Y49678368D01*
X3059301Y49660151D01*
X3101445Y49635524D01*
X3150169Y49583886D01*
X3163240Y49514103D01*
X3136509Y49448331D01*
X3096055Y49414973D01*
X3083607Y49408493D01*
X3079474Y49405390D01*
X3079471Y49405388D01*
X2911624Y49279365D01*
X2904965Y49274365D01*
X2750629Y49112862D01*
X2747715Y49108590D01*
X2747714Y49108589D01*
X2738815Y49095543D01*
X2624743Y48928320D01*
X2530688Y48725695D01*
X2470989Y48510430D01*
X2447251Y48288305D01*
X2447548Y48283152D01*
X2447548Y48283149D01*
X2452914Y48190092D01*
X2460110Y48065285D01*
X2461247Y48060239D01*
X2461248Y48060233D01*
X2482265Y47966977D01*
X2509222Y47847361D01*
X2543419Y47763143D01*
X2585101Y47660493D01*
X2593266Y47640384D01*
X2595965Y47635980D01*
X2703662Y47460234D01*
X2709987Y47449912D01*
X2856250Y47281062D01*
X2931213Y47218827D01*
X3018123Y47146673D01*
X3028126Y47138368D01*
X3059301Y47120151D01*
X3101445Y47095524D01*
X3150169Y47043886D01*
X3163240Y46974103D01*
X3136509Y46908331D01*
X3096055Y46874973D01*
X3083607Y46868493D01*
X3079474Y46865390D01*
X3079471Y46865388D01*
X2911624Y46739365D01*
X2904965Y46734365D01*
X2750629Y46572862D01*
X2747715Y46568590D01*
X2747714Y46568589D01*
X2738815Y46555543D01*
X2624743Y46388320D01*
X2530688Y46185695D01*
X2470989Y45970430D01*
X2447251Y45748305D01*
X2447548Y45743152D01*
X2447548Y45743149D01*
X2452914Y45650092D01*
X2460110Y45525285D01*
X2461247Y45520239D01*
X2461248Y45520233D01*
X2482265Y45426977D01*
X2509222Y45307361D01*
X2543419Y45223143D01*
X2585101Y45120493D01*
X2593266Y45100384D01*
X2595965Y45095980D01*
X2703662Y44920234D01*
X2709987Y44909912D01*
X2856250Y44741062D01*
X2931213Y44678827D01*
X3018123Y44606673D01*
X3028126Y44598368D01*
X3059301Y44580151D01*
X3101445Y44555524D01*
X3150169Y44503886D01*
X3163240Y44434103D01*
X3136509Y44368331D01*
X3096055Y44334973D01*
X3083607Y44328493D01*
X3079474Y44325390D01*
X3079471Y44325388D01*
X2911624Y44199365D01*
X2904965Y44194365D01*
X2750629Y44032862D01*
X2747715Y44028590D01*
X2747714Y44028589D01*
X2738815Y44015543D01*
X2624743Y43848320D01*
X2530688Y43645695D01*
X2470989Y43430430D01*
X2447251Y43208305D01*
X2447548Y43203152D01*
X2447548Y43203149D01*
X2452914Y43110092D01*
X2460110Y42985285D01*
X2461247Y42980239D01*
X2461248Y42980233D01*
X2482265Y42886977D01*
X2509222Y42767361D01*
X2543419Y42683143D01*
X2585101Y42580493D01*
X2593266Y42560384D01*
X2595965Y42555980D01*
X2703662Y42380234D01*
X2709987Y42369912D01*
X2856250Y42201062D01*
X2931213Y42138827D01*
X3018123Y42066673D01*
X3028126Y42058368D01*
X3059301Y42040151D01*
X3101445Y42015524D01*
X3150169Y41963886D01*
X3163240Y41894103D01*
X3136509Y41828331D01*
X3096055Y41794973D01*
X3083607Y41788493D01*
X3079474Y41785390D01*
X3079471Y41785388D01*
X2911624Y41659365D01*
X2904965Y41654365D01*
X2750629Y41492862D01*
X2747715Y41488590D01*
X2747714Y41488589D01*
X2738815Y41475543D01*
X2624743Y41308320D01*
X2530688Y41105695D01*
X2470989Y40890430D01*
X2447251Y40668305D01*
X2447548Y40663152D01*
X2447548Y40663149D01*
X2452914Y40570092D01*
X2460110Y40445285D01*
X2461247Y40440239D01*
X2461248Y40440233D01*
X2482265Y40346977D01*
X2509222Y40227361D01*
X2543419Y40143143D01*
X2585101Y40040493D01*
X2593266Y40020384D01*
X2595965Y40015980D01*
X2703662Y39840234D01*
X2709987Y39829912D01*
X2856250Y39661062D01*
X3003610Y39538721D01*
X3018123Y39526673D01*
X3028126Y39518368D01*
X3059301Y39500151D01*
X3101445Y39475524D01*
X3150169Y39423886D01*
X3163240Y39354103D01*
X3136509Y39288331D01*
X3096055Y39254973D01*
X3083607Y39248493D01*
X3079474Y39245390D01*
X3079471Y39245388D01*
X2911624Y39119365D01*
X2904965Y39114365D01*
X2750629Y38952862D01*
X2747715Y38948590D01*
X2747714Y38948589D01*
X2738815Y38935543D01*
X2624743Y38768320D01*
X2530688Y38565695D01*
X2470989Y38350430D01*
X2447251Y38128305D01*
X2447548Y38123152D01*
X2447548Y38123149D01*
X2452914Y38030092D01*
X2460110Y37905285D01*
X2461247Y37900239D01*
X2461248Y37900233D01*
X2482265Y37806977D01*
X2509222Y37687361D01*
X2543419Y37603143D01*
X2585101Y37500493D01*
X2593266Y37480384D01*
X2595965Y37475980D01*
X2703662Y37300234D01*
X2709987Y37289912D01*
X2856250Y37121062D01*
X3003610Y36998721D01*
X3018123Y36986673D01*
X3028126Y36978368D01*
X3059301Y36960151D01*
X3101445Y36935524D01*
X3150169Y36883886D01*
X3163240Y36814103D01*
X3136509Y36748331D01*
X3096055Y36714973D01*
X3083607Y36708493D01*
X3079474Y36705390D01*
X3079471Y36705388D01*
X2911624Y36579365D01*
X2904965Y36574365D01*
X2750629Y36412862D01*
X2747715Y36408590D01*
X2747714Y36408589D01*
X2738815Y36395543D01*
X2624743Y36228320D01*
X2530688Y36025695D01*
X2470989Y35810430D01*
X2447251Y35588305D01*
X2447548Y35583152D01*
X2447548Y35583149D01*
X2452914Y35490092D01*
X2460110Y35365285D01*
X2461247Y35360239D01*
X2461248Y35360233D01*
X2482265Y35266977D01*
X2509222Y35147361D01*
X2543419Y35063143D01*
X2585101Y34960493D01*
X2593266Y34940384D01*
X2595965Y34935980D01*
X2703662Y34760234D01*
X2709987Y34749912D01*
X2856250Y34581062D01*
X3003610Y34458721D01*
X3018123Y34446673D01*
X3028126Y34438368D01*
X3059301Y34420151D01*
X3101445Y34395524D01*
X3150169Y34343886D01*
X3163240Y34274103D01*
X3136509Y34208331D01*
X3096055Y34174973D01*
X3083607Y34168493D01*
X3079474Y34165390D01*
X3079471Y34165388D01*
X2911624Y34039365D01*
X2904965Y34034365D01*
X2750629Y33872862D01*
X2747715Y33868590D01*
X2747714Y33868589D01*
X2738815Y33855543D01*
X2624743Y33688320D01*
X2530688Y33485695D01*
X2470989Y33270430D01*
X2447251Y33048305D01*
X2447548Y33043152D01*
X2447548Y33043149D01*
X2452914Y32950092D01*
X2460110Y32825285D01*
X2461247Y32820239D01*
X2461248Y32820233D01*
X2482265Y32726977D01*
X2509222Y32607361D01*
X2543419Y32523143D01*
X2585101Y32420493D01*
X2593266Y32400384D01*
X2595965Y32395980D01*
X2703662Y32220234D01*
X2709987Y32209912D01*
X2856250Y32041062D01*
X3003610Y31918721D01*
X3018123Y31906673D01*
X3028126Y31898368D01*
X3059301Y31880151D01*
X3101445Y31855524D01*
X3150169Y31803886D01*
X3163240Y31734103D01*
X3136509Y31668331D01*
X3096055Y31634973D01*
X3083607Y31628493D01*
X3079473Y31625389D01*
X3057297Y31608739D01*
X2990812Y31583834D01*
X2981645Y31583500D01*
X2004257Y31583500D01*
X1993468Y31584411D01*
X1993446Y31584107D01*
X1987472Y31584546D01*
X1981554Y31585552D01*
X1902831Y31583834D01*
X1888901Y31583530D01*
X1886152Y31583500D01*
X1847154Y31583500D01*
X1844175Y31583216D01*
X1844157Y31583215D01*
X1839778Y31582797D01*
X1830564Y31582257D01*
X1795489Y31581492D01*
X1776081Y31581068D01*
X1776080Y31581068D01*
X1770083Y31580937D01*
X1764223Y31579675D01*
X1764220Y31579675D01*
X1737327Y31573885D01*
X1722775Y31571633D01*
X1718310Y31571207D01*
X1689434Y31568452D01*
X1683678Y31566763D01*
X1683676Y31566763D01*
X1631396Y31551426D01*
X1622446Y31549153D01*
X1590631Y31542303D01*
X1563299Y31536419D01*
X1557783Y31534072D01*
X1557780Y31534071D01*
X1532464Y31523299D01*
X1518615Y31518340D01*
X1486466Y31508908D01*
X1481134Y31506162D01*
X1481132Y31506161D01*
X1432688Y31481211D01*
X1424330Y31477287D01*
X1374188Y31455951D01*
X1374184Y31455949D01*
X1368664Y31453600D01*
X1340870Y31434888D01*
X1328203Y31427397D01*
X1303754Y31414806D01*
X1303747Y31414802D01*
X1298420Y31412058D01*
X1272300Y31391541D01*
X1250857Y31374697D01*
X1243391Y31369263D01*
X1196967Y31338008D01*
X1196961Y31338004D01*
X1193201Y31335472D01*
X1189076Y31331732D01*
X1168467Y31311123D01*
X1157205Y31301132D01*
X1136797Y31285102D01*
X1136793Y31285098D01*
X1132080Y31281396D01*
X1128149Y31276866D01*
X1128148Y31276865D01*
X1091291Y31234391D01*
X1085221Y31227877D01*
X723595Y30866251D01*
X661283Y30832225D01*
X590468Y30837290D01*
X533632Y30879837D01*
X508821Y30946357D01*
X508500Y30955346D01*
X508500Y64365500D01*
X528502Y64433621D01*
X582158Y64480114D01*
X634500Y64491500D01*
X27365500Y64491500D01*
X27433621Y64471498D01*
G37*
G04 #@! TD.AperFunction*
M02*
