M48
; DRILL file {KiCad (6.0.7-1)-1} date 
; FORMAT={-:-/ absolute / metric / decimal}
; #@! TF.CreationDate,2022-09-03T11:07:39+09:00
; #@! TF.GenerationSoftware,Kicad,Pcbnew,(6.0.7-1)-1
; #@! TF.FileFunction,MixedPlating,1,2
FMAT,2
METRIC
; #@! TA.AperFunction,Plated,PTH,ViaDrill
T1C0.300
; #@! TA.AperFunction,Plated,PTH,ComponentDrill
T2C0.800
; #@! TA.AperFunction,Plated,PTH,ComponentDrill
T3C0.900
; #@! TA.AperFunction,Plated,PTH,ComponentDrill
T4C1.000
%
G90
G05
T1
X1.27Y63.5
X1.27Y33.02
X9.525Y53.34
X9.525Y33.02
X9.525Y7.62
X17.78Y53.34
X17.78Y33.02
X17.78Y22.86
X18.415Y9.883
X26.67Y63.5
T2
X3.215Y2.54
X5.715Y2.54
X6.35Y55.88
X6.35Y53.34
X6.35Y50.8
X6.35Y48.26
X6.35Y45.72
X6.35Y43.18
X6.35Y40.64
X6.35Y38.1
X6.35Y35.56
X6.35Y33.02
X6.35Y30.48
X6.35Y27.94
X6.35Y25.4
X6.35Y22.86
X6.35Y20.32
X6.35Y17.78
X6.35Y15.24
X6.35Y12.7
X6.35Y10.16
X6.35Y7.62
X15.24Y60.96
X15.24Y2.54
X21.59Y55.88
X21.59Y53.34
X21.59Y50.8
X21.59Y48.26
X21.59Y45.72
X21.59Y43.18
X21.59Y40.64
X21.59Y38.1
X21.59Y35.56
X21.59Y33.02
X21.59Y30.48
X21.59Y27.94
X21.59Y25.4
X21.59Y22.86
X21.59Y20.32
X21.59Y17.78
X21.59Y15.24
X21.59Y12.7
X21.59Y10.16
X21.59Y7.62
X25.4Y60.96
X25.4Y2.54
T3
X5.71Y60.96
X8.25Y60.96
T4
X3.81Y55.875
X3.81Y53.335
X3.81Y50.795
X3.81Y48.255
X3.81Y45.715
X3.81Y43.175
X3.81Y40.635
X3.81Y38.095
X3.81Y35.555
X3.81Y33.015
X3.81Y30.475
X3.81Y27.935
X3.81Y25.395
X3.81Y22.855
X3.81Y20.315
X3.81Y17.775
X3.81Y15.235
X3.81Y12.695
X3.81Y10.155
X3.81Y7.615
X24.13Y55.88
X24.13Y53.34
X24.13Y50.8
X24.13Y48.26
X24.13Y45.72
X24.13Y43.18
X24.13Y40.64
X24.13Y38.1
X24.13Y35.56
X24.13Y33.02
X24.13Y30.48
X24.13Y27.94
X24.13Y25.4
X24.13Y22.86
X24.13Y20.32
X24.13Y17.78
X24.13Y15.24
X24.13Y12.7
X24.13Y10.16
X24.13Y7.62
T0
M30
